<svg width="847" height="676" viewBox="0 0 847 676" fill="none" xmlns="http://www.w3.org/2000/svg">
<path fill-rule="evenodd" clip-rule="evenodd" d="M469.294 302.206C469.425 300.345 469.985 282.976 470.977 250.101C471.225 241.872 465.523 234.655 457.458 232.99C456.918 232.878 456.647 232.822 456.647 232.822C446.913 232.142 438.25 238.952 436.615 248.568L428.269 297.659" fill="white"/>
<path d="M456.742 233.2L457.526 233.362C465.402 234.988 470.97 242.036 470.728 250.072C469.737 282.925 469.176 300.309 469.046 302.162C469.031 302.38 469.196 302.57 469.415 302.585C469.634 302.601 469.824 302.436 469.839 302.217C469.97 300.347 470.53 282.994 471.522 250.096C471.776 241.674 465.941 234.288 457.687 232.584L456.876 232.417L456.823 232.409C446.886 231.714 438.04 238.667 436.371 248.485L428.025 297.576C427.989 297.792 428.134 297.997 428.351 298.034C428.567 298.071 428.772 297.925 428.809 297.709L437.155 248.618C438.754 239.211 447.222 232.548 456.742 233.2Z" fill="#F56843"/>
<path fill-rule="evenodd" clip-rule="evenodd" d="M475.767 297.885L480.031 264.746C480.442 261.555 478.187 258.637 474.996 258.226C474.749 258.194 474.501 258.179 474.253 258.179C470.302 258.179 466.799 260.719 465.572 264.473L454.647 297.907L475.767 297.885Z" fill="white"/>
<path d="M476.11 298.04C476.31 298.04 476.478 297.891 476.504 297.693L480.768 264.554C481.206 261.146 478.798 258.028 475.389 257.59C475.126 257.556 474.861 257.539 474.595 257.539C470.472 257.539 466.817 260.189 465.537 264.107L454.611 297.541C454.527 297.798 454.719 298.062 454.989 298.062L476.11 298.04ZM475.76 297.246L455.537 297.266L466.292 264.353C467.465 260.763 470.816 258.333 474.595 258.333C474.827 258.333 475.058 258.348 475.288 258.378C478.261 258.76 480.362 261.48 479.979 264.453L475.76 297.246Z" fill="#F56843"/>
<path fill-rule="evenodd" clip-rule="evenodd" d="M370.659 379.217L411.128 366.031C415.715 364.536 419.061 360.575 419.767 355.805L428.417 297.377H475.313L467.015 371.615C465.554 384.691 458.507 396.498 447.69 403.995L401.658 435.896L370.659 379.217Z" fill="#FFD1D1"/>
<path fill-rule="evenodd" clip-rule="evenodd" d="M467.894 364.915C458.532 370.036 451.732 375.863 447.493 382.396C443.254 388.929 439.633 398.729 436.63 411.795C439.223 409.905 441.431 408.315 443.254 407.027C450.718 401.754 456.455 396.958 459.946 391.401C464.715 383.808 467.364 374.98 467.894 364.915Z" fill="#FFAFAF"/>
<path d="M416.956 361.521C416.959 361.516 416.963 361.511 416.967 361.506C416.977 361.492 416.988 361.478 417 361.466C418.276 359.823 419.14 357.853 419.457 355.714L428.099 297.342C428.128 297.147 428.295 297.002 428.492 297.002H475.388C475.625 297.002 475.809 297.208 475.783 297.444L472.179 329.685C472.241 329.762 472.274 329.862 472.264 329.968C472.254 330.08 472.198 330.178 472.117 330.243L467.49 371.636C466.013 384.853 458.88 396.782 447.934 404.341L402.148 435.959C402.002 436.06 401.806 436.052 401.668 435.937C395.367 430.683 390.124 424.02 385.938 415.951C381.763 407.901 377.075 395.433 371.869 378.54C371.805 378.332 371.92 378.111 372.128 378.045L411.014 365.644C413.41 364.88 415.461 363.423 416.956 361.521ZM385.187 374.714L372.745 378.682C377.891 395.343 382.526 407.646 386.644 415.585C390.731 423.464 395.831 429.979 401.946 435.133L413.614 427.076L385.187 374.714ZM385.958 374.469L414.272 426.621L447.482 403.687C458.239 396.259 465.248 384.536 466.7 371.547L471.312 330.282L424.672 326.091C424.664 326.09 424.655 326.089 424.647 326.087L420.244 355.83C419.925 357.978 419.088 359.966 417.854 361.653L445.605 381.543C445.784 381.671 445.825 381.919 445.697 382.098C445.569 382.276 445.321 382.317 445.142 382.189L417.365 362.28C415.794 364.174 413.692 365.624 411.256 366.401L385.958 374.469ZM424.763 325.301L471.401 329.492L474.943 297.797H428.835L424.763 325.301Z" fill="#F56843"/>
<path fill-rule="evenodd" clip-rule="evenodd" d="M297.799 387.428C297.799 387.428 285.435 393.873 260.707 406.762L271.229 426.075L303.098 404.622C299.565 393.159 297.799 387.428 297.799 387.428Z" fill="#FFAFAF"/>
<path fill-rule="evenodd" clip-rule="evenodd" d="M543.668 475.095L535.985 412.59L539.959 410.736L556.386 386.369L559.3 385.574C560.354 385.322 561.149 385.322 561.685 385.574C562.22 385.826 562.924 386.532 563.804 387.693V461.853C563.221 463.255 562.691 464.226 562.214 464.766C561.738 465.306 560.943 465.836 559.83 466.355L543.668 475.095ZM472.928 530.187L523.267 511.645L525.652 518.532L558.505 527.007L559.83 529.391C559.533 531.14 559.178 532.38 558.77 533.1C558.362 533.821 557.567 534.615 556.386 535.484L487.765 551.64C486.345 551.783 485.197 551.603 484.32 551.11C483.444 550.613 482.561 549.643 481.671 548.197L472.928 530.187Z" fill="white"/>
<path d="M297.425 387.098L260.333 406.433C260.136 406.536 260.061 406.78 260.168 406.975L270.69 426.287C270.803 426.493 271.067 426.558 271.262 426.427L303.13 404.973C303.275 404.876 303.34 404.694 303.288 404.527L297.989 387.334C297.916 387.096 297.645 386.983 297.425 387.098ZM302.441 404.479L271.179 425.524L261.059 406.95L297.37 388.023L302.441 404.479Z" fill="#F56843"/>
<path fill-rule="evenodd" clip-rule="evenodd" d="M411.461 453.112V453.929L375.163 383.72L323.764 405.438C324.722 436.794 329.112 457.63 336.936 467.944C344.76 478.258 358.65 481.525 378.607 477.743H407.486L411.461 453.112Z" fill="#FFD1D1"/>
<path d="M411.933 453.112V453.929C411.933 454.082 411.858 454.197 411.753 454.263L407.954 477.807C407.923 477.999 407.757 478.141 407.561 478.141H378.72C358.649 481.937 344.619 478.632 336.694 468.184C328.807 457.785 324.402 436.884 323.441 405.451C323.436 405.287 323.533 405.136 323.684 405.073L375.084 383.354C375.275 383.273 375.496 383.353 375.591 383.538L411.372 452.746C411.607 452.648 411.933 452.781 411.933 453.112ZM411.831 453.777L411.849 453.669L411.788 453.552C411.824 453.622 411.839 453.699 411.831 453.777ZM375.054 384.23L324.244 405.698C325.217 436.826 329.591 457.504 337.328 467.704C345.045 477.879 358.784 481.11 378.609 477.354L378.682 477.347H407.223L411.022 453.801L375.054 384.23Z" fill="#F56843"/>
<path fill-rule="evenodd" clip-rule="evenodd" d="M401.923 435.896L404.572 440.929C396.431 447.349 389.984 451.851 385.231 454.436C380.478 457.022 375.268 459.405 369.599 461.587L366.42 456.025C371.587 453.795 376.533 451.324 381.257 448.609C385.981 445.896 392.869 441.658 401.923 435.896Z" fill="#FFAFAF"/>
<path fill-rule="evenodd" clip-rule="evenodd" d="M417.554 543.695L543.139 475.625L536.25 412.854L411.726 474.036" fill="#FFAFAF"/>
<path d="M401.7 435.303C392.385 441.579 385.151 446.165 380.002 449.058C374.863 451.945 370.028 454.142 365.499 455.649C365.291 455.718 365.179 455.943 365.248 456.151C365.317 456.359 365.542 456.472 365.75 456.402C370.33 454.88 375.21 452.662 380.392 449.75C385.563 446.845 392.813 442.249 402.144 435.961C402.327 435.839 402.375 435.592 402.252 435.41C402.13 435.228 401.882 435.18 401.7 435.303Z" fill="#F56843"/>
<path d="M404.522 440.612C395.874 447.168 388.32 452.19 381.863 455.676C375.434 459.147 371.05 460.988 368.769 461.192C368.55 461.211 368.389 461.405 368.408 461.623C368.428 461.842 368.621 462.003 368.84 461.984C371.267 461.766 375.715 459.899 382.24 456.375C388.737 452.867 396.324 447.824 405.002 441.245C405.177 441.113 405.211 440.863 405.078 440.689C404.946 440.514 404.696 440.48 404.522 440.612Z" fill="#F56843"/>
<path d="M542.847 475.266C542.831 475.233 542.821 475.197 542.821 475.158L535.932 413.203L411.711 474.393C411.515 474.489 411.276 474.408 411.179 474.212C411.082 474.015 411.163 473.777 411.36 473.68L539.233 410.691L555.591 386.582C556.169 385.734 557.133 385.232 558.156 385.247C558.521 385.252 558.871 385.321 559.189 385.442C559.21 385.405 559.247 385.361 559.3 385.31C559.475 385.133 559.682 385.021 559.92 384.974C560.159 384.927 560.402 384.903 560.646 384.902C562.702 384.899 564.371 386.564 564.377 388.62L564.488 459.763C564.493 462.822 562.967 465.832 560.037 466.572V466.626C560.037 466.769 559.957 466.901 559.83 466.97L417.554 544.044C417.361 544.145 417.12 544.076 417.015 543.88C416.91 543.689 416.982 543.451 417.175 543.345L542.847 475.266ZM543.584 474.866L559.247 466.382L560.365 388.325C560.381 387.081 559.39 386.059 558.145 386.042C557.387 386.031 556.677 386.402 556.248 387.029L539.832 411.224C539.795 411.281 539.742 411.327 539.678 411.357L536.616 412.867C536.674 412.927 536.711 413.006 536.722 413.095L543.584 474.866ZM560.01 385.907C560.72 386.474 561.176 387.354 561.16 388.336L560.053 465.744C562.49 465.006 563.698 462.385 563.693 459.764L563.582 388.622C563.576 387.004 562.262 385.694 560.646 385.697C560.455 385.697 560.265 385.716 560.074 385.753C560.053 385.812 560.031 385.863 560.01 385.907Z" fill="#F56843"/>
<path fill-rule="evenodd" clip-rule="evenodd" d="M317.405 465.845L321.454 487.828L351.655 541.115C359.601 555.136 376.539 561.339 391.665 555.761L402.25 551.863C412.433 548.107 421.218 541.321 427.417 532.412L454.774 493.105L472.928 530.187L523.268 511.645L487.878 427.979C484.001 418.812 475.011 412.854 465.055 412.854C454.534 412.854 444.443 417.021 436.989 424.441L389.545 471.671" fill="#FFD1D1"/>
<path fill-rule="evenodd" clip-rule="evenodd" d="M435.041 426.362C443.519 432.896 452.351 437.574 461.536 440.399C470.72 443.225 480.877 442.607 492.004 438.545C489.521 430.32 486.783 424.581 483.791 421.33C480.227 417.457 473.581 414.009 469.749 413.119C464.721 411.952 455.434 413.303 448.023 416.827C444.458 418.523 440.131 421.701 435.041 426.362Z" fill="#FFAFAF"/>
<path d="M559.703 528.537L559.846 528.502L559.851 528.526C560.678 531.945 558.574 535.389 555.151 536.215L488.963 552.165C485.976 552.885 482.888 551.513 481.419 548.833C481.293 548.811 481.181 548.732 481.123 548.615L454.711 493.872L427.743 532.624C421.498 541.597 412.647 548.435 402.387 552.217L391.802 556.116C376.494 561.758 359.352 555.48 351.309 541.295L321.108 488.004C321.087 487.966 321.071 487.924 321.063 487.88L317.014 465.898C316.975 465.682 317.117 465.475 317.333 465.435C317.549 465.395 317.756 465.538 317.796 465.754L321.833 487.671L352.001 540.903C359.851 554.755 376.585 560.878 391.527 555.369L402.112 551.471C412.219 547.747 420.939 541.009 427.091 532.168L454.448 492.86C454.621 492.61 455 492.64 455.132 492.914L472.913 529.768L522.685 511.437L492.816 440.7C475.141 449.313 455.385 445.182 433.596 428.361L389.826 471.934C389.67 472.089 389.419 472.088 389.264 471.933C389.109 471.777 389.109 471.526 389.265 471.371L436.708 424.141C444.237 416.646 454.43 412.438 465.055 412.438C475.17 412.438 484.302 418.494 488.236 427.81L523.499 511.323C523.562 511.367 523.612 511.431 523.641 511.508C523.665 511.573 523.67 511.641 523.661 511.705L526.281 517.911L557.409 525.767C558.521 526.048 559.38 526.93 559.634 528.048C559.671 528.212 559.692 528.375 559.703 528.537ZM559.226 530.367C558.808 531.013 558.145 531.506 557.334 531.691L482.246 548.674C483.588 550.893 486.224 552.011 488.777 551.391L554.961 535.442C557.403 534.854 559.078 532.745 559.226 530.367ZM473.26 530.489L481.702 547.985L557.16 530.918C558.373 530.642 559.131 529.436 558.861 528.223C558.67 527.396 558.034 526.745 557.213 526.538L525.895 518.633C525.774 518.603 525.674 518.517 525.626 518.402L522.994 512.17L473.26 530.489ZM492.506 439.967L487.503 428.119C483.694 419.097 474.851 413.233 465.055 413.233C454.64 413.233 444.649 417.358 437.269 424.704L434.164 427.795C455.717 444.406 475.148 448.446 492.506 439.967Z" fill="#F56843"/>
<path fill-rule="evenodd" clip-rule="evenodd" d="M343.369 378.423L244.271 441.688C221.729 456.079 213.45 485.006 224.964 509.137L232.071 524.031C244.67 550.438 276.297 561.63 302.711 549.034C304.122 548.361 305.502 547.63 306.847 546.836L352.182 520.065C360.625 515.08 367.518 507.85 372.095 499.181L372.646 498.137C377.389 489.153 377.537 478.442 373.045 469.33L361.916 446.755C345.396 459.068 336.476 467.543 335.156 472.181C333.979 476.317 320.509 484.838 294.747 497.744C289.159 500.543 282.358 498.582 279.12 493.237C276.519 488.945 277.892 483.358 282.186 480.759C282.677 480.461 283.195 480.211 283.733 480.012L331.977 462.117" fill="#FFD1D1"/>
<path fill-rule="evenodd" clip-rule="evenodd" d="M223.614 506.613C224.939 510.321 230.691 521.93 232.887 525.683C235.198 529.632 237.656 533.365 240.836 537.073C243.984 540.744 248.22 544.372 254.613 547.667C256.751 548.769 259.048 549.913 261.501 551.11C259.851 537.19 257.997 527.477 255.938 521.975C254.268 517.514 252.571 513.042 250.109 509.527C243.926 500.698 233.934 491.774 220.133 482.755C218.921 488.773 220.081 496.726 223.614 506.613Z" fill="#FFAFAF"/>
<path fill-rule="evenodd" clip-rule="evenodd" d="M337.011 467.15L337.541 474.036C343.916 486.1 347.836 493.383 349.3 495.885C350.84 498.518 353.897 505.007 358.471 515.353C363.597 510.915 367.66 506.324 370.659 501.581C373.658 496.837 375.513 492.07 376.223 487.279C376.929 480.922 375.163 473.771 370.924 465.825C368.81 461.862 365.718 455.241 361.651 445.961C350.121 452.064 342.085 457.096 337.541 461.058C332.997 465.019 332.82 467.05 337.011 467.15Z" fill="white"/>
<path d="M372.499 469.262C376.935 478.26 376.788 488.838 372.105 497.709L371.554 498.752C367.011 507.356 360.17 514.532 351.79 519.48L306.293 546.343C305.007 547.106 303.688 547.81 302.342 548.457C276.167 561.042 244.741 550.035 232.151 523.867L225.308 509.644C213.866 485.864 221.831 457.291 243.924 442.851L341.997 378.755C342.181 378.636 342.232 378.389 342.113 378.206C341.992 378.022 341.746 377.97 341.563 378.091L243.489 442.186C221.062 456.844 212.977 485.85 224.592 509.988L231.435 524.211C244.215 550.771 276.116 561.948 302.687 549.172C304.053 548.515 305.392 547.8 306.697 547.032L352.194 520.164C360.701 515.141 367.646 507.857 372.257 499.124L372.808 498.08C377.61 488.984 377.761 478.137 373.212 468.911L362.082 446.337C361.988 446.146 361.758 446.063 361.563 446.15C348.386 452.057 340.301 456.477 337.263 459.45C335.874 460.809 335.103 462.527 334.788 464.611C334.591 465.91 334.578 467.032 334.658 469.039C334.728 470.802 334.723 471.343 334.584 471.83C333.456 475.796 319.97 484.327 294.379 497.146C288.976 499.852 282.401 497.956 279.27 492.789C276.822 488.748 278.115 483.488 282.157 481.04C282.655 480.738 283.182 480.488 283.731 480.294L333.965 462.491C334.171 462.418 334.279 462.191 334.206 461.985C334.133 461.778 333.906 461.669 333.699 461.743L283.465 479.545C282.866 479.757 282.29 480.031 281.745 480.36C277.327 483.035 275.914 488.784 278.59 493.201C281.936 498.722 288.962 500.748 294.735 497.856C320.67 484.864 334.123 476.354 335.349 472.047C335.521 471.44 335.527 470.888 335.452 469.007C335.374 467.048 335.387 465.964 335.574 464.729C335.865 462.805 336.565 461.245 337.819 460.017C340.738 457.16 348.659 452.819 361.539 447.032L372.499 469.262Z" fill="#F56843"/>
<path fill-rule="evenodd" clip-rule="evenodd" d="M375.238 383.667C365.98 363.106 360.416 349.447 358.547 342.69C352.486 320.785 348.256 301.678 325.618 301.678C302.979 301.678 284.627 320.024 284.627 342.656C284.627 349.102 290.191 369.772 301.319 404.666C317.73 404.6 331.007 403.783 341.151 402.215C351.295 400.647 362.657 394.464 375.238 383.667Z" fill="#FFD1D1" stroke="#F56843" stroke-width="1.5" stroke-linecap="round" stroke-linejoin="round"/>
<path fill-rule="evenodd" clip-rule="evenodd" d="M375.163 383.604C365.905 363.043 360.342 349.384 358.472 342.627C352.411 320.722 348.181 301.615 325.543 301.615C302.904 301.615 284.552 319.961 284.552 342.593C284.552 349.039 290.116 369.709 301.243 404.603C317.655 404.537 330.933 403.72 341.076 402.152C351.22 400.584 362.582 394.401 375.163 383.604Z" fill="#FFD1D1"/>
<path fill-rule="evenodd" clip-rule="evenodd" d="M375.163 383.604C365.905 363.043 360.342 349.384 358.472 342.627C352.411 320.722 348.181 301.615 325.543 301.615C302.904 301.615 284.552 319.961 284.552 342.593C284.552 349.039 290.116 369.709 301.243 404.603C317.655 404.537 330.933 403.72 341.076 402.152C351.22 400.584 362.582 394.401 375.163 383.604Z" stroke="#F56843" stroke-width="1.5" stroke-linecap="round" stroke-linejoin="round"/>
<path d="M375.526 383.441C366.276 362.899 360.717 349.252 358.855 342.521C358.611 341.639 357.53 337.706 357.24 336.656C353.673 323.792 351.206 317.223 347.233 311.704C342.216 304.734 335.353 301.218 325.543 301.218C302.685 301.218 284.154 319.742 284.154 342.593C284.154 349.101 289.719 369.772 300.864 404.723C300.917 404.889 301.071 405 301.245 405C317.675 404.934 330.971 404.116 341.137 402.544C351.365 400.963 362.79 394.746 375.422 383.905C375.556 383.79 375.598 383.601 375.526 383.441ZM341.015 401.759C330.954 403.314 317.792 404.13 301.533 404.204C290.483 369.536 284.949 348.96 284.949 342.593C284.949 320.181 303.123 302.012 325.543 302.012C335.098 302.012 341.721 305.405 346.588 312.168C350.487 317.586 352.932 324.094 356.474 336.869C356.764 337.916 357.844 341.85 358.088 342.732C359.957 349.487 365.485 363.067 374.679 383.496C362.239 394.129 351.014 400.213 341.015 401.759Z" fill="#F56843"/>
<path d="M306.369 361.45C306.369 361.45 328.502 370.138 362.132 358.323C362.71 358.121 363.344 357.758 364.035 357.234C362.296 353.757 361.236 351.373 360.856 350.083C359.306 344.832 359.162 341.498 357.411 338.165C356.28 336.011 355.884 332.336 354.762 328.895C354.157 327.039 353.009 324.125 351.318 320.155C349.637 316.821 348.489 314.613 347.873 313.533C346.93 311.88 346.93 310.265 345.7 310.444C339.053 311.411 331.886 315.72 324.197 323.373C306.33 341.155 306.369 361.45 306.369 361.45Z" fill="#F56843"/>
<path fill-rule="evenodd" clip-rule="evenodd" d="M320.584 327.306C322.439 325.187 323.465 323.861 325.088 322.274C326.711 320.687 328.797 318.83 332.507 316.182C334.45 321.303 336.392 326.865 338.865 334.457C342.574 345.846 336.701 347.642 329.592 340.019C324.853 334.937 322.026 330.876 320.584 327.306ZM341.599 326.648C342.921 326.74 343.641 332.472 344.044 333.456C344.27 334.005 344.007 334.632 343.459 334.857C342.958 335.062 342.382 334.862 342.116 334.391C340.567 331.643 339.799 329.994 339.81 329.443C339.839 328.051 340.278 326.555 341.599 326.648Z" fill="white"/>
<path d="M334.172 461.058C352.023 461.058 366.495 446.591 366.495 428.745C366.495 410.9 352.023 396.433 334.172 396.433C316.319 396.433 301.848 410.9 301.848 428.745C301.848 446.591 316.319 461.058 334.172 461.058Z" fill="#F56843"/>
<path d="M306.74 358.737C303.946 346.341 308.05 334.557 319.088 323.347C330.129 312.135 337.929 306.704 342.354 307.044C342.573 307.061 342.293 307.131 342.31 306.912C342.327 306.694 342.264 306.665 342.045 306.648C341.918 306.638 342.16 306.237 342.029 306.235C337.232 306.184 329.438 311.704 318.521 322.79C307.304 334.181 303.107 346.234 305.965 358.911C306.013 359.125 306.225 359.26 306.44 359.212C306.654 359.164 306.788 358.951 306.74 358.737Z" fill="#F56843"/>
<path fill-rule="evenodd" clip-rule="evenodd" d="M313.241 453.907L325.164 423.43L355.066 414.765C356.19 414.439 357.366 415.086 357.692 416.21C357.888 416.887 357.735 417.617 357.283 418.158L340.266 438.545L338.866 461.058L313.241 453.907Z" fill="white"/>
<path fill-rule="evenodd" clip-rule="evenodd" d="M325.097 423.448C321.029 427.89 318.443 430.81 317.338 432.208C311.538 439.548 311.751 442.322 314.499 444.107C319.798 447.55 325.287 454.456 328.996 448.099C331.469 443.862 330.169 435.645 325.097 423.448Z" fill="#FFD1D1"/>
<path d="M324.87 423.161C325.067 422.947 325.419 423.009 325.53 423.277C330.648 435.583 331.963 443.897 329.406 448.28C327.947 450.78 326.09 451.532 323.813 450.808C322.169 450.284 320.924 449.434 317.618 446.835C316.826 446.214 316.363 445.855 315.865 445.485C315.316 445.076 314.82 444.728 314.349 444.421C311.018 442.257 311.626 438.86 317.093 431.943C318.206 430.534 320.796 427.61 324.87 423.161ZM328.719 447.88C331.069 443.853 329.863 435.927 325.035 424.159C321.216 428.334 318.775 431.096 317.717 432.435C312.5 439.035 311.981 441.935 314.782 443.755C315.269 444.071 315.778 444.429 316.339 444.847C316.844 445.223 317.312 445.585 318.109 446.211C321.326 448.739 322.541 449.569 324.055 450.05C325.971 450.66 327.445 450.063 328.719 447.88ZM341.189 437.524C341.314 437.344 341.562 437.299 341.742 437.425C341.922 437.55 341.966 437.797 341.841 437.977C340.302 440.193 338.885 441.326 337.541 441.326C337.321 441.326 337.143 441.148 337.143 440.929C337.143 440.709 337.321 440.532 337.541 440.532C338.551 440.532 339.784 439.546 341.189 437.524Z" fill="#F56843"/>
<path d="M304.953 366.239C307.148 366.239 308.927 364.461 308.927 362.267C308.927 360.073 307.148 358.294 304.953 358.294C302.758 358.294 300.979 360.073 300.979 362.267C300.979 364.461 302.758 366.239 304.953 366.239Z" fill="white"/>
<path d="M304.763 366.637C307.177 366.637 309.134 364.681 309.134 362.267C309.134 359.853 307.177 357.897 304.763 357.897C302.348 357.897 300.391 359.853 300.391 362.267C300.391 364.681 302.348 366.637 304.763 366.637ZM304.763 365.842C302.787 365.842 301.186 364.241 301.186 362.267C301.186 360.292 302.787 358.691 304.763 358.691C306.738 358.691 308.339 360.292 308.339 362.267C308.339 364.241 306.738 365.842 304.763 365.842Z" fill="#F56843"/>
<path d="M304.763 364.518C306.141 364.518 307.28 363.523 307.28 362.267C307.28 361.011 306.141 360.015 304.763 360.015C303.383 360.015 302.246 361.011 302.246 362.267C302.246 363.523 303.383 364.518 304.763 364.518ZM304.763 363.723C303.8 363.723 303.04 363.059 303.04 362.267C303.04 361.475 303.8 360.81 304.763 360.81C305.724 360.81 306.485 361.475 306.485 362.267C306.485 363.059 305.724 363.723 304.763 363.723Z" fill="#F56843"/>
<path fill-rule="evenodd" clip-rule="evenodd" d="M338.865 459.204L337.351 474.036L314.831 487.278L297.004 496.548L288.261 484.895C295.571 484.471 299.722 483.323 300.713 481.451C303.647 475.911 307.798 466.818 313.166 454.171L338.865 459.204Z" fill="white"/>
<path d="M338.942 458.549C339.144 458.589 339.282 458.775 339.261 458.98L337.746 473.811C337.734 473.937 337.661 474.049 337.552 474.113L315.014 487.366L297.187 496.636C297.015 496.726 296.803 496.677 296.686 496.522L287.943 484.869C287.753 484.615 287.922 484.251 288.238 484.233C295.4 483.819 299.465 482.695 300.362 481.001C303.29 475.473 307.436 466.388 312.8 453.752C312.873 453.579 313.058 453.481 313.242 453.517L338.942 458.549ZM313.406 454.358C308.095 466.86 303.982 475.863 301.065 481.372C300.015 483.355 296.022 484.515 289.021 484.981L297.119 495.776L314.629 486.671L336.976 473.531L338.434 459.259L313.406 454.358ZM337.149 473.428L336.956 473.73L336.976 473.531L337.149 473.428Z" fill="#F56843"/>
<path fill-rule="evenodd" clip-rule="evenodd" d="M242.16 350.878C239.526 350.878 237.391 348.744 237.391 346.11C237.391 343.478 239.526 341.343 242.16 341.343C244.794 341.343 246.929 343.478 246.929 346.11C246.929 348.744 244.794 350.878 242.16 350.878ZM288.791 362.796L290.04 367.564C289.741 367.665 289.444 367.776 289.15 367.894C280.772 371.284 276.73 380.822 280.12 389.197L282.622 395.374L277.853 398.022L275.031 388.841C271.988 378.937 276.754 368.311 286.176 363.995L288.791 362.796Z" fill="white"/>
<path d="M253.151 368.417C253.164 368.336 253.15 368.252 253.113 368.179L244.105 350.433C244.005 350.238 243.766 350.16 243.57 350.259C243.374 350.358 243.296 350.598 243.396 350.793L252.346 368.426L251.305 375.452C251.279 375.631 251.377 375.806 251.545 375.876L258.811 378.916L270.689 400.982C270.794 401.175 271.035 401.247 271.228 401.144C271.421 401.04 271.494 400.799 271.389 400.605L259.444 378.416C259.401 378.335 259.332 378.273 259.248 378.237L252.137 375.263L253.151 368.417Z" fill="#F56843"/>
<path d="M241.971 351.275C239.117 351.275 236.804 348.963 236.804 346.11C236.804 343.259 239.117 340.946 241.971 340.946C244.824 340.946 247.137 343.259 247.137 346.11C247.137 348.963 244.824 351.275 241.971 351.275ZM241.971 350.481C244.385 350.481 246.342 348.524 246.342 346.11C246.342 343.697 244.385 341.74 241.971 341.74C239.556 341.74 237.599 343.697 237.599 346.11C237.599 348.524 239.556 350.481 241.971 350.481ZM288.435 362.436C288.66 362.333 288.923 362.457 288.985 362.696L290.235 367.463C290.288 367.665 290.176 367.874 289.978 367.94C289.686 368.039 289.396 368.147 289.11 368.262C280.935 371.57 276.991 380.876 280.299 389.048L282.8 395.225C282.876 395.411 282.8 395.624 282.625 395.721L277.856 398.37C277.635 398.492 277.357 398.381 277.283 398.139L274.462 388.957C271.36 378.863 276.218 368.033 285.821 363.633L288.435 362.436ZM286.152 364.356C276.911 368.59 272.237 379.011 275.222 388.724L277.899 397.437L281.932 395.197L279.563 389.346C276.089 380.767 280.23 370.998 288.811 367.526C288.997 367.451 289.184 367.379 289.373 367.311L288.336 363.355L286.152 364.356Z" fill="#F56843"/>
<path d="M252.059 506.789C259 516.246 263.421 531.357 265.342 552.133L264.55 552.207C262.613 531.262 258.129 516.141 251.116 506.852C245.384 499.26 239.23 493.007 232.892 487.965C228.241 484.264 223.889 481.521 220.077 479.609L220.433 478.899C224.293 480.835 228.692 483.607 233.388 487.343C239.712 492.375 245.854 498.601 251.578 506.145L278.269 491.697C278.462 491.592 278.703 491.664 278.808 491.857C278.912 492.05 278.841 492.291 278.647 492.395L252.059 506.789ZM289.974 499.277C289.869 499.084 289.94 498.843 290.133 498.738C290.325 498.633 290.567 498.704 290.672 498.896L314.309 542.179C314.415 542.37 314.344 542.614 314.151 542.715C313.959 542.82 313.717 542.752 313.612 542.561L289.974 499.277ZM281.301 481.012C281.398 481.209 281.317 481.447 281.12 481.544C280.923 481.64 280.685 481.559 280.588 481.362L257.171 433.688C257.074 433.491 257.155 433.253 257.352 433.156C257.549 433.06 257.787 433.141 257.884 433.338L281.301 481.012Z" fill="#F56843"/>
<path d="M301.508 404.908L313.241 428.745" stroke="#F56843" stroke-width="1.5" stroke-linecap="round" stroke-linejoin="round"/>
<path d="M337.483 473.903L358.471 515.169" stroke="#F56843" stroke-width="1.5" stroke-linecap="round" stroke-linejoin="round"/>
<path d="M668.882 285.077C669.094 285.017 669.311 285.14 669.369 285.351C669.428 285.563 669.306 285.782 669.094 285.841L635.371 295.338C627.132 297.658 622.336 306.216 624.657 314.452C625.198 316.372 626.104 318.169 627.328 319.746L632.272 326.121C637.067 332.302 635.938 341.197 629.755 345.99C626.978 348.141 623.502 349.186 619.999 348.919L602.995 347.624C594.363 346.967 585.933 350.464 580.305 357.039L572.055 366.671C571.912 366.838 571.663 366.857 571.493 366.714C571.329 366.572 571.308 366.321 571.451 366.154L579.701 356.523C585.493 349.755 594.172 346.156 603.053 346.832L620.063 348.127C623.369 348.378 626.649 347.393 629.267 345.362C635.107 340.838 636.166 332.442 631.641 326.608L626.697 320.233C625.415 318.576 624.461 316.686 623.889 314.668C621.451 306.009 626.496 297.012 635.154 294.573L668.882 285.077ZM610.435 400.141V393.255C610.435 392.962 610.673 392.725 610.965 392.725C611.256 392.725 611.495 392.962 611.495 393.255V400.141H618.383C618.675 400.141 618.913 400.378 618.913 400.671C618.913 400.964 618.675 401.2 618.383 401.2H611.495V408.087C611.495 408.38 611.256 408.616 610.965 408.616C610.673 408.616 610.435 408.38 610.435 408.087V401.2H603.546C603.255 401.2 603.016 400.964 603.016 400.671C603.016 400.378 603.255 400.141 603.546 400.141H610.435ZM362.446 230.634V223.747C362.446 223.455 362.683 223.218 362.976 223.218C363.268 223.218 363.505 223.455 363.505 223.747V230.634H370.394C370.687 230.634 370.924 230.871 370.924 231.163C370.924 231.456 370.687 231.693 370.394 231.693H363.505V238.579C363.505 238.872 363.268 239.109 362.976 239.109C362.683 239.109 362.446 238.872 362.446 238.579V231.693H355.557C355.265 231.693 355.027 231.456 355.027 231.163C355.027 230.871 355.265 230.634 355.557 230.634H362.446ZM587.12 261.357V254.471C587.12 254.178 587.358 253.941 587.649 253.941C587.941 253.941 588.179 254.178 588.179 254.471V261.357H595.068C595.359 261.357 595.598 261.594 595.598 261.887C595.598 262.18 595.359 262.416 595.068 262.416H588.179V269.303C588.179 269.595 587.941 269.832 587.649 269.832C587.358 269.832 587.12 269.595 587.12 269.303V262.416H580.231C579.94 262.416 579.701 262.18 579.701 261.887C579.701 261.594 579.94 261.357 580.231 261.357H587.12ZM200.829 400.141V394.844C200.829 394.551 201.066 394.314 201.359 394.314C201.651 394.314 201.889 394.551 201.889 394.844V400.141H207.188C207.48 400.141 207.717 400.378 207.717 400.671C207.717 400.964 207.48 401.2 207.188 401.2H201.889V406.497C201.889 406.79 201.651 407.027 201.359 407.027C201.066 407.027 200.829 406.79 200.829 406.497V401.2H195.53C195.237 401.2 195 400.964 195 400.671C195 400.378 195.237 400.141 195.53 400.141H200.829ZM525.917 323.333V318.301C525.917 318.008 526.155 317.771 526.447 317.771C526.74 317.771 526.977 318.008 526.977 318.301V323.333H532.011C532.302 323.333 532.541 323.57 532.541 323.863C532.541 324.156 532.302 324.392 532.011 324.392H526.977V329.425C526.977 329.718 526.74 329.954 526.447 329.954C526.155 329.954 525.917 329.718 525.917 329.425V324.392H520.883C520.591 324.392 520.353 324.156 520.353 323.863C520.353 323.57 520.591 323.333 520.883 323.333H525.917ZM391.325 307.707V302.674C391.325 302.382 391.562 302.145 391.855 302.145C392.147 302.145 392.385 302.382 392.385 302.674V307.707H397.418C397.711 307.707 397.948 307.944 397.948 308.236C397.948 308.529 397.711 308.766 397.418 308.766H392.385V313.798C392.385 314.091 392.147 314.328 391.855 314.328C391.562 314.328 391.325 314.091 391.325 313.798V308.766H386.291C385.998 308.766 385.761 308.529 385.761 308.236C385.761 307.944 385.998 307.707 386.291 307.707H391.325Z" fill="#F56843"/>
<path fill-rule="evenodd" clip-rule="evenodd" d="M339.22 423.174C336.645 421.329 334.54 420.868 332.902 421.791C330.445 423.174 327.286 425.94 329.041 429.399C330.796 432.857 332.2 435.624 333.955 435.624C335.71 435.624 338.868 435.969 340.623 432.165C341.793 429.629 341.325 426.632 339.22 423.174Z" fill="#FFD1D1"/>
<path fill-rule="evenodd" clip-rule="evenodd" d="M339.075 424.764C338.894 426.64 338.269 427.849 337.201 428.39C336.267 428.864 334.806 429.14 332.817 429.218C331.94 429.253 331.201 428.569 331.167 427.693C331.155 427.392 331.228 427.095 331.379 426.834C332.472 424.946 333.442 423.787 334.287 423.358C335.173 422.908 336.331 422.804 337.758 423.045C338.581 423.183 339.156 423.934 339.075 424.764Z" fill="white"/>
<path d="M338.417 425.393C338.15 425.812 337.62 426.097 337.011 426.097C336.133 426.097 335.421 425.504 335.421 424.773C335.421 424.059 336.1 423.477 336.948 423.45C335.855 423.333 334.966 423.453 334.276 423.803C333.518 424.188 332.591 425.297 331.533 427.124C331.42 427.319 331.365 427.542 331.374 427.767C331.399 428.425 331.954 428.938 332.612 428.912C334.548 428.836 335.959 428.569 336.831 428.127C337.653 427.71 338.187 426.811 338.417 425.393ZM337.67 423.567C337.802 423.61 337.923 423.674 338.029 423.756C337.921 423.681 337.8 423.617 337.67 423.567ZM339.282 424.893C339.088 426.891 338.4 428.222 337.191 428.835C336.195 429.34 334.684 429.626 332.643 429.706C331.546 429.749 330.623 428.895 330.58 427.799C330.565 427.423 330.657 427.051 330.845 426.726C331.974 424.776 332.985 423.567 333.917 423.095C334.888 422.602 336.129 422.489 337.634 422.743C338.662 422.916 339.382 423.856 339.282 424.893Z" fill="#F56843"/>
<path fill-rule="evenodd" clip-rule="evenodd" d="M355.822 414.581C354.582 414.271 353.274 414.484 351.898 415.22C351.64 415.358 351.543 415.679 351.681 415.937C351.71 415.991 351.749 416.041 351.795 416.081C352.32 416.552 352.956 416.819 353.702 416.883C354.692 416.968 355.839 416.968 357.147 416.883C357.677 415.702 357.235 414.934 355.822 414.581Z" fill="#FFD1D1"/>
<path d="M356.184 414.14C354.842 413.805 353.434 414.034 351.976 414.814C351.524 415.055 351.354 415.618 351.596 416.069C351.647 416.164 351.714 416.249 351.794 416.322C352.385 416.851 353.102 417.153 353.934 417.224C354.944 417.31 356.111 417.31 357.437 417.224C357.585 417.215 357.714 417.125 357.774 416.99C358.411 415.57 357.825 414.55 356.184 414.14ZM354.001 416.432C353.339 416.375 352.785 416.142 352.325 415.73C352.313 415.72 352.304 415.708 352.296 415.694C352.262 415.63 352.286 415.549 352.351 415.515C353.644 414.823 354.852 414.626 355.991 414.911C357.081 415.183 357.419 415.641 357.137 416.446C355.951 416.514 354.906 416.509 354.001 416.432Z" fill="#F56843"/>
<path fill-rule="evenodd" clip-rule="evenodd" d="M685.149 261.357L679.851 262.681L693.363 275.924L694.952 270.627" fill="white"/>
<path d="M481.936 530.981C484.131 530.981 485.91 529.201 485.91 527.007C485.91 524.812 484.131 523.034 481.936 523.034C479.741 523.034 477.962 524.812 477.962 527.007C477.962 529.201 479.741 530.981 481.936 530.981Z" fill="white"/>
<path d="M481.747 531.379C484.161 531.379 486.118 529.42 486.118 527.007C486.118 524.593 484.161 522.636 481.747 522.636C479.332 522.636 477.375 524.593 477.375 527.007C477.375 529.42 479.332 531.379 481.747 531.379ZM481.747 530.584C479.771 530.584 478.17 528.981 478.17 527.007C478.17 525.032 479.771 523.431 481.747 523.431C483.722 523.431 485.323 525.032 485.323 527.007C485.323 528.981 483.722 530.584 481.747 530.584Z" fill="#F56843"/>
<path d="M541.814 467.944C544.008 467.944 545.788 466.166 545.788 463.971C545.788 461.777 544.008 459.998 541.814 459.998C539.62 459.998 537.84 461.777 537.84 463.971C537.84 466.166 539.62 467.944 541.814 467.944Z" fill="white"/>
<path d="M541.814 468.341C544.23 468.341 546.186 466.385 546.186 463.971C546.186 461.558 544.23 459.601 541.814 459.601C539.398 459.601 537.442 461.558 537.442 463.971C537.442 466.385 539.398 468.341 541.814 468.341ZM541.814 467.547C539.837 467.547 538.237 465.946 538.237 463.971C538.237 461.997 539.837 460.395 541.814 460.395C543.79 460.395 545.391 461.997 545.391 463.971C545.391 465.946 543.79 467.547 541.814 467.547Z" fill="#F56843"/>
<path d="M481.746 529.258C483.125 529.258 484.263 528.263 484.263 527.007C484.263 525.751 483.125 524.755 481.746 524.755C480.367 524.755 479.229 525.751 479.229 527.007C479.229 528.263 480.367 529.258 481.746 529.258ZM481.746 528.463C480.784 528.463 480.024 527.798 480.024 527.007C480.024 526.215 480.784 525.55 481.746 525.55C482.708 525.55 483.469 526.215 483.469 527.007C483.469 527.798 482.708 528.463 481.746 528.463Z" fill="#F56843"/>
<path d="M541.814 466.222C543.192 466.222 544.331 465.227 544.331 463.971C544.331 462.715 543.192 461.72 541.814 461.72C540.436 461.72 539.297 462.715 539.297 463.971C539.297 465.227 540.436 466.222 541.814 466.222ZM541.814 465.428C540.849 465.428 540.092 464.763 540.092 463.971C540.092 463.18 540.849 462.514 541.814 462.514C542.778 462.514 543.536 463.18 543.536 463.971C543.536 464.763 542.778 465.428 541.814 465.428Z" fill="#F56843"/>
<path d="M308.469 362.56C312.631 366.359 321.721 368.052 335.772 367.696C349.794 367.341 359.751 365.209 365.656 361.273C365.838 361.152 365.887 360.905 365.766 360.723C365.644 360.54 365.397 360.491 365.215 360.612C359.462 364.446 349.637 366.55 335.751 366.902C321.894 367.253 312.968 365.591 309.005 361.974C308.842 361.825 308.591 361.837 308.444 361.999C308.295 362.161 308.307 362.412 308.469 362.56Z" fill="#F56843"/>
<path fill-rule="evenodd" clip-rule="evenodd" d="M766.366 183.542C753.209 188.068 739.792 196.098 726.126 207.63C712.026 219.526 696.818 235.856 680.502 256.622L698.842 274.323C719.153 257.072 734.949 241.309 746.225 227.035C757.167 213.191 764.782 199.57 769.084 186.172C769.328 185.412 769.116 184.579 768.544 184.024C767.966 183.468 767.124 183.282 766.366 183.542Z" fill="#FFD1D1"/>
<path fill-rule="evenodd" clip-rule="evenodd" d="M745.557 193.555L759.599 206.532C767.193 192.76 770.197 185.167 768.607 183.755C767.018 182.342 759.334 185.609 745.557 193.555Z" fill="#FFAFAF"/>
<path fill-rule="evenodd" clip-rule="evenodd" d="M691.116 274.015L682.765 284.135L683.56 276.454L676.936 278.043L679.586 272.216H671.902L681.53 264.618L679.066 262.203L685.054 260.707L685.245 261.478L680.635 262.63L693.172 274.915L694.571 270.248L695.334 270.476L693.554 276.403L691.116 274.015Z" fill="#F56843"/>
<path d="M725.861 207.148C711.739 219.063 696.516 235.413 680.184 256.199C680.057 256.359 680.073 256.588 680.221 256.73L698.556 274.431C698.704 274.573 698.932 274.58 699.091 274.448C719.423 257.181 735.235 241.401 746.532 227.104C757.496 213.224 765.137 199.562 769.455 186.116C769.741 185.212 769.492 184.22 768.809 183.56C768.125 182.9 767.129 182.68 766.233 182.988C753.018 187.532 739.564 195.586 725.861 207.148ZM681.032 256.407C697.247 235.796 712.365 219.578 726.375 207.756C740.004 196.253 753.378 188.249 766.488 183.74C767.108 183.528 767.791 183.68 768.258 184.132C768.724 184.582 768.894 185.257 768.697 185.873C764.411 199.223 756.817 212.803 745.907 226.611C734.7 240.798 719.01 256.465 698.847 273.609L681.032 256.407Z" fill="#F56843"/>
<path fill-rule="evenodd" clip-rule="evenodd" d="M707.77 228.515L705.407 232.722L680.773 256.462L662.338 257.558L660.774 256.048L707.77 228.515ZM726.37 246.316L699.653 293.77L698.111 292.234L698.89 273.788L722.205 248.752L726.37 246.316Z" fill="white"/>
<path d="M707.31 228.361C707.659 228.156 708.057 228.546 707.861 228.899L705.497 233.105L705.423 233.197L680.794 256.937C680.725 257.003 680.635 257.042 680.54 257.048L662.105 258.144C661.993 258.15 661.882 258.11 661.802 258.033L660.239 256.523C660.049 256.341 660.086 256.028 660.314 255.895L707.31 228.361ZM661.167 256.316L662.232 257.34L680.343 256.263L704.83 232.665L706.446 229.789L661.167 256.316ZM704.872 232.625L704.803 232.717L704.83 232.665L704.872 232.625ZM725.909 246.163C726.259 245.958 726.656 246.347 726.455 246.7L699.737 294.154C699.61 294.384 699.298 294.427 699.112 294.24L697.575 292.704C697.496 292.625 697.454 292.517 697.459 292.406L698.233 273.96C698.238 273.865 698.275 273.775 698.339 273.706L721.654 248.671L721.744 248.599L725.909 246.163ZM722.194 249.255L699.022 274.14L698.259 292.265L699.303 293.309L725.045 247.589L722.194 249.255Z" fill="#F56843"/>
<path d="M737.609 224.277C741.996 224.277 745.557 220.72 745.557 216.332C745.557 211.943 741.996 208.386 737.609 208.386C733.221 208.386 729.66 211.943 729.66 216.332C729.66 220.72 733.221 224.277 737.609 224.277Z" fill="white"/>
<path d="M737.714 224.49C742.324 224.49 746.06 220.754 746.06 216.147C746.06 211.539 742.324 207.804 737.714 207.804C733.104 207.804 729.369 211.539 729.369 216.147C729.369 220.754 733.104 224.49 737.714 224.49ZM737.714 223.695C733.544 223.695 730.163 220.315 730.163 216.147C730.163 211.978 733.544 208.598 737.714 208.598C741.885 208.598 745.265 211.978 745.265 216.147C745.265 220.315 741.885 223.695 737.714 223.695Z" fill="#F56843"/>
<path d="M737.609 220.437C735.341 220.437 733.502 218.6 733.502 216.332C733.502 214.065 735.341 212.227 737.609 212.227C739.877 212.227 741.715 214.065 741.715 216.332C741.715 218.6 739.877 220.437 737.609 220.437ZM737.609 219.643C739.437 219.643 740.92 218.161 740.92 216.332C740.92 214.504 739.437 213.021 737.609 213.021C735.78 213.021 734.297 214.504 734.297 216.332C734.297 218.161 735.78 219.643 737.609 219.643ZM745.287 193.58L745.827 193L759.991 206.243L759.451 206.823L745.287 193.58Z" fill="#F56843"/>
<path d="M467.682 361.931C456.726 368.827 449.18 375.394 445.042 381.648C440.908 387.895 437.185 398.441 433.858 413.298L434.634 413.471C437.941 398.701 441.636 388.235 445.705 382.086C449.77 375.942 457.237 369.444 468.106 362.604L467.682 361.931Z" fill="#F56843"/>
<path fill-rule="evenodd" clip-rule="evenodd" d="M314.168 451.814C318.439 453.332 322.391 454.487 326.024 455.276C329.578 456.048 333.754 456.716 338.551 457.278C339.569 457.397 340.297 458.318 340.178 459.335C340.168 459.413 340.155 459.491 340.136 459.568L340.084 459.776C339.821 460.83 338.804 461.514 337.728 461.361C333.268 460.727 329.101 460.023 325.229 459.249C321.3 458.463 317.335 457.107 313.333 455.18C312.461 454.76 312.004 453.786 312.238 452.848C312.437 452.056 313.239 451.575 314.031 451.772C314.077 451.784 314.123 451.798 314.168 451.814Z" fill="white"/>
<path d="M329.869 456.766C328.512 456.527 327.226 456.275 326.011 456.012C324.531 455.69 322.989 455.274 321.385 454.766L320.812 457.246C322.416 457.725 323.992 458.119 325.541 458.429C326.771 458.674 328.031 458.913 329.32 459.145L329.869 456.766ZM330.654 456.902L330.104 459.284C332.623 459.728 335.254 460.144 337.997 460.534C338.669 460.629 339.305 460.202 339.469 459.543L339.521 459.335C339.531 459.291 339.54 459.247 339.545 459.202C339.613 458.62 339.197 458.094 338.615 458.026C335.741 457.689 333.087 457.315 330.654 456.902ZM320.626 454.519C318.559 453.834 316.393 452.999 314.125 452.011C314.075 451.99 314.024 451.972 313.971 451.959C313.446 451.828 312.916 452.147 312.785 452.671L312.701 453.006C312.545 453.634 312.865 454.283 313.459 454.541C315.705 455.515 317.902 456.339 320.05 457.013L320.626 454.519ZM314.443 451.282C318.726 453.148 322.638 454.465 326.18 455.235C329.734 456.007 333.91 456.675 338.708 457.236C339.725 457.355 340.453 458.277 340.334 459.294C340.325 459.373 340.311 459.451 340.292 459.527L340.24 459.735C339.977 460.789 338.96 461.473 337.885 461.32C333.424 460.686 329.258 459.982 325.385 459.208C321.471 458.426 317.39 457.113 313.143 455.27C312.192 454.857 311.679 453.819 311.93 452.814L312.014 452.479C312.25 451.529 313.213 450.951 314.163 451.188C314.259 451.211 314.352 451.243 314.443 451.282Z" fill="#F56843"/>
<path fill-rule="evenodd" clip-rule="evenodd" d="M267.065 408.351L270.775 406.762L274.484 414.443L270.775 416.827L267.065 408.351ZM279.518 411.265C278.529 411.265 277.533 411.102 276.868 410.47C276.157 409.795 275.809 408.616 275.809 407.557C275.809 406.71 276.125 405.533 276.603 404.908C277.281 404.024 278.317 403.849 279.518 403.849C280.587 403.849 281.491 403.92 282.167 404.643C282.787 405.307 283.227 406.578 283.227 407.557C283.227 408.779 282.815 410.06 281.902 410.735C281.286 411.191 280.343 411.265 279.518 411.265Z" fill="#FFD1D1"/>
<path d="M266.806 408.144L271.232 406.248L275.26 414.587L270.862 417.413L266.806 408.144ZM271.217 416.241L274.238 414.3L270.847 407.277L267.855 408.559L271.217 416.241ZM279.783 411.662C278.514 411.662 277.543 411.407 276.86 410.758C276.103 410.04 275.676 408.8 275.676 407.557C275.676 406.584 276.037 405.339 276.553 404.667C277.248 403.759 278.232 403.452 279.783 403.452C281.259 403.452 282.039 403.642 282.723 404.372C283.402 405.098 283.889 406.459 283.889 407.557C283.889 409.006 283.37 410.34 282.404 411.055C281.786 411.512 280.956 411.662 279.783 411.662ZM279.783 410.868C280.796 410.868 281.491 410.742 281.931 410.416C282.668 409.871 283.095 408.776 283.095 407.557C283.095 406.653 282.677 405.487 282.142 404.915C281.652 404.392 281.057 404.246 279.783 404.246C278.455 404.246 277.694 404.484 277.184 405.15C276.783 405.673 276.471 406.748 276.471 407.557C276.471 408.599 276.826 409.631 277.407 410.183C277.911 410.661 278.699 410.868 279.783 410.868Z" fill="#F56843"/>
<path d="M474.783 296.847H428.682C427.804 296.847 427.092 297.559 427.092 298.437C427.092 299.314 427.804 300.026 428.682 300.026H474.783C475.661 300.026 476.372 299.314 476.372 298.437C476.372 297.559 475.661 296.847 474.783 296.847Z" fill="white"/>
<path d="M428.682 296.847H474.783C475.661 296.847 476.372 297.559 476.372 298.437C476.372 299.314 475.661 300.026 474.783 300.026H428.682C427.804 300.026 427.092 299.314 427.092 298.437C427.092 297.559 427.804 296.847 428.682 296.847ZM428.682 297.642C428.243 297.642 427.887 297.998 427.887 298.437C427.887 298.876 428.243 299.231 428.682 299.231H474.783C475.221 299.231 475.577 298.876 475.577 298.437C475.577 297.998 475.221 297.642 474.783 297.642H428.682Z" fill="#F56843"/>
<path d="M359.4 514.42L338.471 473.358C338.172 472.772 337.454 472.539 336.868 472.837C336.281 473.136 336.047 473.854 336.347 474.44L357.276 515.502C357.575 516.089 358.293 516.322 358.879 516.023C359.466 515.724 359.699 515.006 359.4 514.42Z" fill="white" stroke="#F56843" stroke-width="1.5"/>
<path fill-rule="evenodd" clip-rule="evenodd" d="M346.611 408.78C345.101 410.059 338.026 404.629 336.513 403.988C335.699 403.644 335.319 402.706 335.663 401.893C335.979 401.147 336.802 400.755 337.579 400.98C342.228 402.321 344.848 403.294 345.44 403.898C346.942 405.43 348.121 407.501 346.611 408.78Z" fill="white"/>
<path fill-rule="evenodd" clip-rule="evenodd" d="M382.225 444.889L398.051 434.868C398.298 434.711 398.626 434.785 398.782 435.032C398.786 435.038 398.79 435.044 398.793 435.05L404.849 445.525C404.99 445.769 404.915 446.082 404.678 446.235L389.133 456.26C388.888 456.418 388.56 456.348 388.401 456.102C388.398 456.098 388.395 456.094 388.393 456.089L382.055 445.611C381.906 445.364 381.981 445.043 382.225 444.889Z" fill="white"/>
<path d="M381.481 445.05L398.108 434.664C398.356 434.509 398.682 434.584 398.838 434.832L405.577 445.613C405.732 445.862 405.656 446.189 405.408 446.343L388.781 456.729C388.533 456.885 388.207 456.809 388.051 456.561L381.312 445.78C381.157 445.532 381.233 445.205 381.481 445.05ZM382.127 445.583L388.585 455.915L404.762 445.81L398.304 435.478L382.127 445.583Z" fill="#F56843"/>
<path d="M385.485 445.212L396.27 438.475C396.518 438.32 396.845 438.395 397.001 438.643L401.493 445.831C401.648 446.079 401.573 446.406 401.325 446.561L390.54 453.298C390.292 453.453 389.965 453.377 389.809 453.129L385.317 445.942C385.162 445.693 385.237 445.367 385.485 445.212ZM390.344 452.484L400.679 446.027L396.467 439.289L386.131 445.745L390.344 452.484Z" fill="#F56843"/>
</svg>
