<svg width="48" height="48" viewBox="0 0 48 48" fill="none" xmlns="http://www.w3.org/2000/svg">
<g id="fluent:javascript-24-filled">
<path id="Vector" d="M6 12.5L6 35.5C6 37.2239 6.68482 38.8772 7.90381 40.0962C9.12279 41.3152 10.7761 42 12.5 42L35.5 42C37.2239 42 38.8772 41.3152 40.0962 40.0962C41.3152 38.8772 42 37.2239 42 35.5L42 12.5C42 10.7761 41.3152 9.12279 40.0962 7.90381C38.8772 6.68482 37.2239 6 35.5 6L12.5 6C10.7761 6 9.12279 6.68482 7.90381 7.90381C6.68482 9.12279 6 10.7761 6 12.5ZM24 19C24.3978 19 24.7794 19.158 25.0607 19.4393C25.342 19.7206 25.5 20.1022 25.5 20.5V32.5C25.5 33.4283 25.1313 34.3185 24.4749 34.9749C23.8185 35.6313 22.9283 36 22 36H19.5C19.1022 36 18.7206 35.842 18.4393 35.5607C18.158 35.2794 18 34.8978 18 34.5C18 34.1022 18.158 33.7206 18.4393 33.4393C18.7206 33.158 19.1022 33 19.5 33H22C22.1326 33 22.2598 32.9473 22.3536 32.8536C22.4473 32.7598 22.5 32.6326 22.5 32.5V20.5C22.5 20.1022 22.658 19.7206 22.9393 19.4393C23.2206 19.158 23.6022 19 24 19ZM28 22.5C28 20.568 29.568 19 31.5 19H34.5C34.8978 19 35.2794 19.158 35.5607 19.4393C35.842 19.7206 36 20.1022 36 20.5C36 20.8978 35.842 21.2794 35.5607 21.5607C35.2794 21.842 34.8978 22 34.5 22H31.5C31.3674 22 31.2402 22.0527 31.1464 22.1464C31.0527 22.2402 31 22.3674 31 22.5V25.5C31 25.776 31.224 26 31.5 26H32.5C34.432 26 36 27.568 36 29.5V32.5C36 33.4283 35.6313 34.3185 34.9749 34.9749C34.3185 35.6313 33.4283 36 32.5 36H29.5C29.1022 36 28.7206 35.842 28.4393 35.5607C28.158 35.2794 28 34.8978 28 34.5C28 34.1022 28.158 33.7206 28.4393 33.4393C28.7206 33.158 29.1022 33 29.5 33H32.5C32.6326 33 32.7598 32.9473 32.8536 32.8536C32.9473 32.7598 33 32.6326 33 32.5V29.5C33 29.3674 32.9473 29.2402 32.8536 29.1464C32.7598 29.0527 32.6326 29 32.5 29H31.5C30.5717 29 29.6815 28.6313 29.0251 27.9749C28.3687 27.3185 28 26.4283 28 25.5V22.5Z" fill="#F2F3F7"/>
</g>
</svg>
