<svg width="48" height="48" viewBox="0 0 48 48" fill="none" xmlns="http://www.w3.org/2000/svg">
<g id="devicon:nextjs-wordmark">
<path id="Vector" d="M11.325 17.2125L20.3625 17.2125V17.925L12.15 17.925V23.325L19.875 23.325V24.0375L12.15 24.0375L12.15 29.9625H20.475V30.675L11.325 30.675L11.325 17.2125ZM21.1875 17.2125H22.1625L26.4375 23.1375L30.75 17.2125L36.675 9.71252L26.925 23.775L31.95 30.675H30.9375L26.4 24.375L21.825 30.675H20.85L25.9125 23.775L21.1875 17.2125ZM32.325 17.925V17.2125H42.6375V17.925H37.875V30.675H37.05V17.925H32.325ZM0 17.2125H1.0125L15.3375 38.5125L9.4125 30.675L0.8625 18.225L0.825 30.675H0L0 17.2125ZM42.5625 29.7375C42.75 29.7375 42.8625 29.625 42.8625 29.4375C42.8625 29.25 42.75 29.1375 42.5625 29.1375C42.375 29.1375 42.2625 29.25 42.2625 29.4375C42.2625 29.625 42.4125 29.7375 42.5625 29.7375ZM43.3875 28.95C43.3875 29.4375 43.7625 29.775 44.2875 29.775C44.85 29.775 45.1875 29.4375 45.1875 28.8375V26.775H44.7375V28.8375C44.7375 29.175 44.5875 29.325 44.2875 29.325C44.025 29.325 43.8375 29.175 43.8375 28.9125H43.3875V28.95ZM45.75 28.9125C45.7875 29.4375 46.2 29.775 46.875 29.775C47.55 29.775 48 29.4375 48 28.875C48 28.425 47.7375 28.2 47.175 28.05L46.8375 27.975C46.4625 27.9 46.3125 27.75 46.3125 27.5625C46.3125 27.3 46.5375 27.1125 46.9125 27.1125C47.25 27.1125 47.475 27.2625 47.5125 27.5625H47.9625C47.925 27.075 47.5125 26.7375 46.9125 26.7375C46.275 26.7375 45.8625 27.075 45.8625 27.6C45.8625 28.0125 46.0875 28.275 46.6125 28.3875L46.9875 28.4625C47.3625 28.5375 47.55 28.6875 47.55 28.9125C47.55 29.175 47.2875 29.3625 46.9125 29.3625C46.5375 29.3625 46.2375 29.175 46.2 28.9125H45.75Z" fill="#F2F3F7"/>
</g>
</svg>
