<svg width="48" height="48" viewBox="0 0 48 48" fill="none" xmlns="http://www.w3.org/2000/svg">
<g id="bxl:nodejs">
<path id="Vector" d="M23.9999 43.97C23.4499 43.97 22.9359 43.822 22.4559 43.566L17.5779 40.67C16.8479 40.264 17.2139 40.116 17.4339 40.042C18.4259 39.712 18.6099 39.64 19.6359 39.056C19.7479 38.982 19.8939 39.016 20.0059 39.09L23.7459 41.33C23.8939 41.402 24.0779 41.402 24.1879 41.33L38.8259 32.856C38.9739 32.784 39.0459 32.636 39.0459 32.452L39.0459 15.536C39.0459 15.354 38.9739 15.206 38.8259 15.134L24.1879 6.69602C24.0419 6.62202 23.8579 6.62202 23.7459 6.69602L9.10394 15.132C8.95794 15.204 8.88394 15.39 8.88394 15.534L8.88394 32.448C8.88394 32.594 8.95794 32.78 9.10394 32.852L13.1039 35.166C15.2679 36.262 16.6279 34.976 16.6279 33.696L16.6279 17.004C16.6279 16.784 16.8099 16.562 17.0679 16.562H18.9399C19.1559 16.562 19.3799 16.746 19.3799 17.004L19.3799 33.698C19.3799 36.596 17.8039 38.286 15.0519 38.286C14.2079 38.286 13.5479 38.286 11.6759 37.366L7.82594 35.168C7.35685 34.8953 6.96756 34.5043 6.69696 34.034C6.42636 33.5637 6.28394 33.0306 6.28394 32.488L6.28394 15.572C6.28394 14.472 6.86994 13.444 7.82594 12.894L22.4579 4.42002C22.9329 4.16599 23.4633 4.03308 24.0019 4.03308C24.5406 4.03308 25.0709 4.16599 25.5459 4.42002L40.1799 12.894C41.1379 13.442 41.7219 14.472 41.7219 15.572L41.7219 32.488C41.7219 33.586 41.1359 34.614 40.1799 35.168L25.5459 43.64C25.0639 43.86 24.5139 43.97 23.9999 43.97ZM28.5119 32.338C22.0919 32.338 20.7719 29.402 20.7719 26.91C20.7719 26.69 20.9559 26.468 21.2119 26.468H23.1199C23.3399 26.468 23.5219 26.614 23.5219 26.836C23.8159 28.778 24.6579 29.734 28.5499 29.734C31.6299 29.734 32.9539 29.034 32.9539 27.384C32.9539 26.43 32.5839 25.734 27.7799 25.258C23.7819 24.858 21.2879 23.972 21.2879 20.782C21.2879 17.812 23.7819 16.05 27.9659 16.05C32.6599 16.05 34.9719 17.668 35.2639 21.186C35.2604 21.3047 35.2214 21.4197 35.1519 21.516C35.0779 21.588 34.9699 21.662 34.8599 21.662H32.9539C32.8597 21.66 32.7689 21.6267 32.6957 21.5673C32.6225 21.5079 32.5712 21.4258 32.5499 21.334C32.1079 19.31 30.9719 18.654 27.9659 18.654C24.5879 18.654 24.1839 19.828 24.1839 20.708C24.1839 21.77 24.6579 22.1 29.2119 22.688C33.7239 23.274 35.8519 24.118 35.8519 27.276C35.8119 30.506 33.1739 32.338 28.5119 32.338Z" fill="#F2F3F7"/>
</g>
</svg>
