<svg width="48" height="48" viewBox="0 0 48 48" fill="none" xmlns="http://www.w3.org/2000/svg">
<g id="uil:react">
<path id="Vector" d="M25.7939 27.124C26.4057 26.7707 26.899 26.244 27.2114 25.6104C27.5238 24.9768 27.6414 24.2648 27.5492 23.5645C27.457 22.8641 27.1592 22.2067 26.6934 21.6756C26.2276 21.1444 25.6148 20.7633 24.9325 20.5804C24.2501 20.3976 23.5289 20.4211 22.8599 20.6481C22.1909 20.8751 21.6043 21.2954 21.1742 21.8557C20.744 22.4161 20.4897 23.0915 20.4434 23.7964C20.3971 24.5013 20.5608 25.2041 20.9139 25.816C21.1484 26.2224 21.4606 26.5785 21.8328 26.8642C22.205 27.1499 22.6298 27.3594 23.0829 27.4809C23.5361 27.6023 24.0088 27.6333 24.4739 27.5721C24.9391 27.5109 25.3876 27.3586 25.7939 27.124ZM9.7839 23.248C10.0186 23.516 10.2659 23.7847 10.5259 24.054C10.3446 24.246 10.1686 24.4373 9.9979 24.628C6.7879 28.236 5.4319 31.856 6.6879 34.03C7.8919 36.116 11.4739 36.738 15.9599 35.866C16.4012 35.7793 16.8406 35.682 17.2779 35.574C17.3619 35.862 17.4506 36.1487 17.5439 36.434C19.0659 41.02 21.5239 44.002 24.0359 44C26.4439 44 28.7719 41.206 30.2579 36.884C30.4046 36.4573 30.5399 36.028 30.6639 35.596C30.9559 35.668 31.2492 35.7347 31.5439 35.796C36.2759 36.766 40.0859 36.126 41.3399 33.948C42.5419 31.862 41.2859 28.448 38.2839 25.004C37.9852 24.664 37.6786 24.3307 37.3639 24.004C37.7359 23.624 38.0859 23.242 38.4139 22.862C41.3439 19.466 42.5279 16.11 41.3279 14.032C40.0879 11.884 36.3319 11.182 31.7579 12.082C31.3872 12.1553 31.0186 12.238 30.6519 12.33C30.5186 11.862 30.3712 11.3973 30.2099 10.936C28.7299 6.702 26.4159 4 24.0159 4C21.5359 4 19.0519 6.906 17.5459 11.318C17.4259 11.666 17.3159 12.028 17.2079 12.4C16.7346 12.2827 16.2579 12.1787 15.7779 12.088C11.3719 11.254 7.87389 11.908 6.6759 13.988C5.4379 16.138 6.7159 19.742 9.7839 23.248ZM39.8599 33.096C39.0879 34.436 35.9739 34.96 31.8879 34.12C31.6266 34.0667 31.3606 34.0067 31.0899 33.94C31.4893 32.1753 31.7713 30.386 31.9339 28.584C33.4074 27.5479 34.8123 26.4175 36.1399 25.2C36.4319 25.5027 36.7166 25.8127 36.9939 26.13C39.5679 29.078 40.5839 31.838 39.8599 33.096ZM32.0859 21.64C33.1059 22.414 34.0559 23.206 34.9179 24.002C34.0579 24.794 33.1079 25.582 32.0879 26.354C32.1252 25.5687 32.1432 24.7827 32.1419 23.996C32.1419 23.2093 32.1232 22.424 32.0859 21.64ZM32.0859 13.76C33.8195 13.3739 35.6093 13.3102 37.3659 13.572C37.8475 13.6097 38.3162 13.7457 38.7431 13.9717C39.17 14.1977 39.546 14.5089 39.8479 14.886C40.5779 16.146 39.6259 18.842 37.1199 21.746C36.8052 22.11 36.4799 22.4647 36.1439 22.81C34.8157 21.585 33.408 20.4492 31.9299 19.41C31.7656 17.5852 31.481 15.7733 31.0779 13.986C31.4112 13.902 31.7479 13.826 32.0879 13.758L32.0859 13.76ZM17.8859 29.838C18.5566 30.2607 19.2352 30.6693 19.9219 31.064C20.5992 31.4533 21.2839 31.8287 21.9759 32.19C20.8382 32.6705 19.6775 33.0943 18.4979 33.46C18.2331 32.2637 18.0289 31.0549 17.8859 29.838ZM28.6399 36.33C27.3679 40.03 25.4839 42.29 24.0319 42.29C22.4859 42.292 20.4779 39.854 19.1639 35.896C19.0786 35.6373 18.9986 35.3773 18.9239 35.116C20.6488 34.5814 22.3365 33.9333 23.9759 33.176C25.6099 33.9426 27.2937 34.5981 29.0159 35.138C28.8999 35.538 28.7746 35.9353 28.6399 36.33ZM29.4399 33.482C28.2657 33.1124 27.1109 32.6839 25.9799 32.198C27.3826 31.4753 28.7479 30.688 30.0759 29.836C29.9159 31.112 29.7019 32.334 29.4399 33.482ZM30.0739 18.162C29.4112 17.7367 28.7386 17.328 28.0559 16.936C27.3599 16.536 26.6552 16.152 25.9419 15.784C27.081 15.2813 28.2452 14.8374 29.4299 14.454C29.7052 15.678 29.9201 16.9149 30.0739 18.16V18.162ZM19.1619 11.87C19.694 10.1759 20.5333 8.59426 21.6379 7.204C21.9106 6.80545 22.2622 6.46707 22.6709 6.20976C23.0795 5.95245 23.5366 5.78168 24.0139 5.708C25.4719 5.708 27.3299 7.878 28.5939 11.5C28.7432 11.928 28.8806 12.36 29.0059 12.796C27.2755 13.3542 25.585 14.0291 23.9459 14.816C22.2926 14.0525 20.5909 13.3985 18.8519 12.858C18.9479 12.526 19.0512 12.1967 19.1619 11.87ZM18.4379 14.518C19.6329 14.8912 20.8089 15.3223 21.9619 15.81C21.2832 16.166 20.5999 16.5427 19.9119 16.94C19.2052 17.348 18.5172 17.766 17.8479 18.194C17.9816 16.9594 18.1785 15.7324 18.4379 14.518ZM17.5439 24.004C17.5439 22.7893 17.5819 21.576 17.6579 20.364C18.6439 19.696 19.6839 19.044 20.7659 18.42C21.8459 17.798 22.9119 17.226 23.9599 16.708C25.0626 17.236 26.1439 17.8053 27.2039 18.416C28.2572 19.0227 29.2866 19.6687 30.2919 20.354C30.3852 21.5673 30.4319 22.782 30.4319 23.998C30.4319 25.2127 30.3866 26.4267 30.2959 27.64C28.2854 29.0126 26.174 30.2314 23.9799 31.286C22.8919 30.7567 21.8232 30.1893 20.7739 29.584C19.7206 28.9787 18.6872 28.3393 17.6739 27.666C17.5872 26.4473 17.5439 25.2267 17.5439 24.004ZM15.6319 34.19C11.7879 34.936 8.8919 34.434 8.1659 33.176C7.3919 31.836 8.4999 28.88 11.2739 25.764C11.4272 25.592 11.5859 25.4193 11.7499 25.246C13.101 26.4674 14.5336 27.5953 16.0379 28.622C16.1894 30.4041 16.46 32.174 16.8479 33.92C16.4346 34.0213 16.0292 34.1113 15.6319 34.19ZM15.8919 26.42C14.8768 25.6791 13.9008 24.886 12.9679 24.044C13.8965 23.1885 14.8691 22.382 15.8819 21.628C15.8512 22.42 15.8359 23.212 15.8359 24.004C15.8359 24.8093 15.8546 25.6147 15.8919 26.42ZM8.1539 14.842C8.8819 13.58 11.6899 13.054 15.4599 13.766C15.8919 13.8473 16.3346 13.9447 16.7879 14.058C16.4093 15.8265 16.1508 17.6186 16.0139 19.422C14.5123 20.466 13.0842 21.612 11.7399 22.852C11.5039 22.608 11.2799 22.3653 11.0679 22.124C9.86579 20.8169 8.9146 19.2996 8.2619 17.648C8.053 17.2125 7.93563 16.7388 7.91705 16.2562C7.89848 15.7736 7.97908 15.2922 8.1539 14.842Z" fill="#F2F3F7"/>
</g>
</svg>
