<svg width="48" height="48" viewBox="0 0 48 48" fill="none" xmlns="http://www.w3.org/2000/svg">
<g id="devicon-plain:typescript">
<path id="Vector" d="M6 23.9999L6 41.9999L42 41.9999L42 5.99994L6 5.99994L6 23.9999ZM35.0102 22.5599C35.8725 22.76 36.6561 23.211 37.2624 23.8559C37.5961 24.2034 37.8863 24.5903 38.1264 25.0079C38.1264 25.054 36.5712 26.1052 35.6237 26.6927C35.5891 26.7158 35.4509 26.566 35.2982 26.3385C35.1253 26.04 34.8795 25.7903 34.5839 25.6125C34.2882 25.4347 33.9524 25.3347 33.6077 25.3219C32.5162 25.247 31.8134 25.8201 31.8192 26.7619C31.8102 26.9963 31.8639 27.229 31.9747 27.4358C32.2138 27.934 32.6602 28.2307 34.0598 28.8355C36.6374 29.9443 37.7405 30.6758 38.4259 31.7155C39.192 32.8675 39.3619 34.7279 38.8435 36.1046C38.2675 37.6022 36.8563 38.6188 34.8605 38.9558C33.9489 39.0602 33.0279 39.0505 32.1187 38.927C30.7312 38.7019 29.4512 38.0412 28.464 37.0406C28.1328 36.6748 27.4877 35.7215 27.528 35.6524C27.6331 35.5744 27.7438 35.5041 27.8592 35.4422L29.184 34.6819L30.2179 34.0828L30.4339 34.4025C30.7985 34.9239 31.2624 35.3683 31.799 35.71C32.951 36.3148 34.5235 36.2313 35.3011 35.5315C35.5622 35.275 35.7251 34.9351 35.7614 34.571C35.7977 34.2068 35.7051 33.8414 35.4998 33.5385C35.2118 33.1382 34.6358 32.8012 33.0259 32.0985C31.1683 31.2979 30.3677 30.8025 29.6362 30.0134C29.1795 29.4926 28.8423 28.8783 28.6483 28.2134C28.5036 27.4538 28.4822 26.6758 28.585 25.9094C28.968 24.1151 30.313 22.8623 32.2771 22.4908C33.1867 22.3783 34.1081 22.4035 35.0102 22.5657V22.5599ZM26.5603 24.0691V25.5436H21.8861L21.8861 38.8579H18.5712L18.5712 25.5407L13.8854 25.5407V24.1007C13.8729 23.605 13.8863 23.109 13.9258 22.6147C13.943 22.5916 16.8058 22.5801 20.2618 22.5859H26.543L26.5603 24.0691Z" fill="#F2F3F7"/>
</g>
</svg>
