<svg width="656" height="499" viewBox="0 0 656 499" fill="none" xmlns="http://www.w3.org/2000/svg">
<path d="M232.208 115.091C230.748 95.2614 214.258 79.8914 194.368 79.8414C193.218 79.8414 192.018 79.9014 190.788 80.0114C190.368 80.0514 189.958 79.8414 189.748 79.4814C177.368 57.8014 149.758 50.2714 128.078 62.6514C117.888 68.4814 110.368 78.0314 107.098 89.3114C106.958 89.7814 106.528 90.1014 106.038 90.0814C106.008 90.0814 105.778 90.0814 105.748 90.0814C105.598 90.0714 105.448 90.0714 105.298 90.0714C90.3177 90.1114 77.3877 100.591 74.2377 115.241C74.1277 115.731 73.6877 116.091 73.1777 116.091C65.9677 116.091 8.28768 116.091 1.07768 116.091C0.477679 116.091 -0.00231934 115.611 -0.00231934 115.011C-0.00231934 114.421 0.477679 113.941 1.07768 113.941C8.19768 113.941 65.1977 113.941 72.3177 113.941C76.0077 98.7214 89.6077 87.9814 105.268 87.9114C112.988 62.9314 139.508 48.9314 164.488 56.6614C175.738 60.1414 185.288 67.6814 191.268 77.8114C192.328 77.7314 193.368 77.6914 194.368 77.6914C215.388 77.7414 232.808 93.9814 234.348 114.941C234.388 115.531 233.948 116.051 233.358 116.091C233.348 116.091 233.348 116.091 233.348 116.091C233.328 116.091 233.298 116.091 233.278 116.091C232.708 116.091 232.248 115.651 232.208 115.091Z" fill="#CBCBCB"/>
<path d="M43.9477 129.891C43.3577 129.891 42.8777 129.411 42.8777 128.811C42.8777 128.221 43.3577 127.741 43.9477 127.741C61.5977 127.741 202.818 127.741 220.468 127.741C221.068 127.741 221.548 128.221 221.548 128.811C221.548 129.411 221.068 129.891 220.468 129.891C220.468 129.891 61.5977 129.891 43.9477 129.891Z" fill="#CBCBCB"/>
<path d="M27.8077 145.501C27.2077 145.501 26.7277 145.021 26.7277 144.421C26.7277 143.831 27.2077 143.351 27.7977 143.341C27.7977 143.341 27.7977 143.341 27.8077 143.341C33.7277 143.341 81.0877 143.341 87.0077 143.341C87.5977 143.351 88.0777 143.831 88.0777 144.421C88.0777 145.021 87.5977 145.501 87.0077 145.501C87.0077 145.501 33.7277 145.501 27.8077 145.501Z" fill="#CBCBCB"/>
<path d="M96.4778 419.622C96.4778 419.622 50.1278 398.682 49.1878 354.932C48.6378 329.202 70.0378 308.342 95.7678 308.342C121.498 308.342 142.348 329.202 142.348 354.922C142.348 354.932 142.348 354.932 142.348 354.932C142.348 398.682 105.648 406.682 96.4778 419.622Z" fill="#E5E5E5"/>
<path d="M80.9478 422.212L77.1878 407.152H115.768L111.998 422.212H80.9478Z" fill="#CBCBCB"/>
<path d="M110.948 447.962C110.948 457.012 110.948 462.032 110.948 463.042C93.5778 463.042 83.9378 463.042 82.0078 463.042C82.0078 453.992 82.0078 448.972 82.0078 447.962C99.3678 447.962 109.018 447.962 110.948 447.962Z" fill="white"/>
<path d="M111.178 463.282H81.7678V447.722H111.178V463.282ZM82.2378 462.802H110.708V448.202H82.2378V462.802Z" fill="#CBCBCB"/>
<path d="M90.5478 423.992L89.1778 421.852H103.768L102.408 423.992H90.5478Z" fill="#CBCBCB"/>
<path d="M81.6578 422.212C81.6578 436.042 81.6578 443.732 81.6578 445.272C81.3678 445.272 81.2178 445.272 81.1878 445.272C81.1878 431.432 81.1878 423.752 81.1878 422.212C81.4678 422.212 81.6178 422.212 81.6578 422.212Z" fill="#CBCBCB"/>
<path d="M111.768 422.212C111.768 436.042 111.768 443.732 111.768 445.272C111.488 445.272 111.328 445.272 111.298 445.272C111.298 431.432 111.298 423.752 111.298 422.212C111.578 422.212 111.738 422.212 111.768 422.212Z" fill="#CBCBCB"/>
<path d="M100.908 406.532C114.498 396.042 130.698 378.092 130.698 352.062C130.728 333.432 119.568 316.602 102.398 309.362C102.408 309.312 102.558 308.972 102.578 308.922C119.928 316.242 131.198 333.242 131.168 352.062C131.168 378.282 114.868 396.352 101.188 406.902C101.138 406.822 100.938 406.562 100.908 406.532Z" fill="#CBCBCB"/>
<path d="M85.8478 406.532C99.4378 396.042 115.648 378.092 115.648 352.062C115.648 333.562 104.648 316.822 87.6578 309.492C87.6778 309.452 87.8278 309.112 87.8478 309.062C105.008 316.472 116.118 333.372 116.118 352.062C116.118 378.282 99.8078 396.352 86.1378 406.902C86.0778 406.822 85.8778 406.562 85.8478 406.532Z" fill="#CBCBCB"/>
<path d="M105.408 406.902C91.7278 396.352 75.4278 378.282 75.4278 352.062C75.4178 333.372 86.5278 316.472 103.688 309.062C103.708 309.112 103.858 309.452 103.878 309.492C86.8878 316.822 75.8878 333.562 75.8978 352.062C75.8978 378.092 92.0978 396.042 105.688 406.532C105.638 406.602 105.458 406.822 105.408 406.902Z" fill="#CBCBCB"/>
<path d="M90.3478 406.902C76.6678 396.352 60.3678 378.282 60.3678 352.062C60.3378 333.162 71.6978 316.102 89.1478 308.842C89.1678 308.892 89.3178 309.232 89.3378 309.282C72.0578 316.462 60.8078 333.352 60.8378 352.062C60.8378 378.092 77.0378 396.042 90.6378 406.532C90.5778 406.602 90.4078 406.822 90.3478 406.902Z" fill="#CBCBCB"/>
<path d="M96.0078 308.342C96.0078 367.632 96.0078 400.572 96.0078 407.152C95.7178 407.152 95.5678 407.152 95.5378 407.152C95.5378 347.872 95.5378 314.932 95.5378 308.342C95.8178 308.342 95.9778 308.342 96.0078 308.342Z" fill="#CBCBCB"/>
<path d="M82.0078 453.342L90.6378 444.712Z" fill="white"/>
<path d="M90.4678 444.542C90.6678 444.742 90.7778 444.852 90.7978 444.872C85.6278 450.052 82.7478 452.932 82.1678 453.502C81.9778 453.302 81.8578 453.192 81.8378 453.172C87.0178 447.992 89.8978 445.122 90.4678 444.542Z" fill="#CBCBCB"/>
<path d="M82.0078 458.052L94.8378 444.562Z" fill="white"/>
<path d="M94.6578 444.402C94.8678 444.592 94.9778 444.702 95.0078 444.722C87.3078 452.812 83.0278 457.312 82.1778 458.212C81.9778 458.022 81.8578 457.912 81.8378 457.892C89.5278 449.792 93.8078 445.302 94.6578 444.402Z" fill="#CBCBCB"/>
<path d="M113.648 444.562C113.648 447.102 113.648 448.512 113.648 448.792C92.4778 448.792 80.7078 448.792 78.3578 448.792C78.3578 446.252 78.3578 444.842 78.3578 444.562C99.5378 444.562 111.298 444.562 113.648 444.562Z" fill="white"/>
<path d="M113.888 449.032H78.1278V444.322H113.888V449.032ZM78.5978 448.562H113.418V444.802H78.5978V448.562Z" fill="#CBCBCB"/>
<path d="M200.858 286.732C200.858 286.732 170.268 272.912 169.638 244.032C169.278 227.052 183.408 213.282 200.388 213.282C217.368 213.282 231.138 227.052 231.138 244.032C231.138 272.912 206.908 278.192 200.858 286.732Z" fill="#E5E5E5"/>
<path d="M190.608 288.442L188.118 278.502H213.588L211.108 288.442H190.608Z" fill="#CBCBCB"/>
<path d="M210.408 305.432C210.408 311.412 210.408 314.722 210.408 315.392C198.948 315.392 192.578 315.392 191.308 315.392C191.308 309.422 191.308 306.102 191.308 305.432C202.768 305.432 209.128 305.432 210.408 305.432Z" fill="white"/>
<path d="M210.558 315.542H191.148V305.282H210.558V315.542ZM191.458 315.232H210.248V305.592H191.458V315.232Z" fill="#CBCBCB"/>
<path d="M196.938 289.612L196.038 288.202H205.668L204.768 289.612H196.938Z" fill="#CBCBCB"/>
<path d="M191.068 288.442C191.068 297.572 191.068 302.642 191.068 303.662C190.888 303.662 190.778 303.662 190.758 303.662C190.758 294.532 190.758 289.452 190.758 288.442C190.948 288.442 191.048 288.442 191.068 288.442Z" fill="#CBCBCB"/>
<path d="M210.948 288.442C210.948 297.572 210.948 302.642 210.948 303.662C210.758 303.662 210.658 303.662 210.638 303.662C210.638 294.532 210.638 289.452 210.638 288.442C210.828 288.442 210.928 288.442 210.948 288.442Z" fill="#CBCBCB"/>
<path d="M203.778 278.092C212.748 271.172 223.448 259.312 223.448 242.142C223.458 229.842 216.098 218.732 204.758 213.952C204.778 213.922 204.868 213.692 204.878 213.662C216.328 218.492 223.768 229.712 223.758 242.142C223.758 259.442 212.998 271.372 203.968 278.332C203.928 278.282 203.798 278.112 203.778 278.092Z" fill="#CBCBCB"/>
<path d="M193.838 278.092C202.808 271.172 213.508 259.312 213.508 242.142C213.508 229.922 206.248 218.882 195.038 214.042C195.048 214.012 195.148 213.782 195.158 213.762C206.488 218.642 213.818 229.802 213.818 242.142C213.818 259.442 203.058 271.372 194.028 278.332C193.988 278.282 193.858 278.112 193.838 278.092Z" fill="#CBCBCB"/>
<path d="M206.748 278.332C197.718 271.372 186.958 259.442 186.958 242.142C186.958 229.802 194.288 218.642 205.618 213.762C205.628 213.782 205.728 214.012 205.738 214.042C194.528 218.882 187.268 229.922 187.268 242.142C187.268 259.312 197.968 271.172 206.938 278.092C206.898 278.132 206.788 278.282 206.748 278.332Z" fill="#CBCBCB"/>
<path d="M196.808 278.332C187.778 271.372 177.018 259.442 177.018 242.142C176.998 229.662 184.498 218.402 196.018 213.612C196.038 213.642 196.128 213.872 196.138 213.902C184.738 218.642 177.308 229.792 177.328 242.142C177.328 259.312 188.028 271.172 196.998 278.092C196.958 278.132 196.848 278.282 196.808 278.332Z" fill="#CBCBCB"/>
<path d="M200.548 213.282C200.548 252.412 200.548 274.152 200.548 278.502C200.358 278.502 200.258 278.502 200.238 278.502C200.238 239.372 200.238 217.632 200.238 213.282C200.418 213.282 200.528 213.282 200.548 213.282Z" fill="#CBCBCB"/>
<path d="M191.308 308.982L196.998 303.292Z" fill="white"/>
<path d="M196.888 303.182C197.018 303.312 197.098 303.382 197.108 303.402C193.688 306.812 191.798 308.712 191.418 309.092C191.278 308.962 191.208 308.892 191.198 308.872C194.608 305.462 196.508 303.562 196.888 303.182Z" fill="#CBCBCB"/>
<path d="M191.308 312.092L199.768 303.192Z" fill="white"/>
<path d="M199.658 303.082C199.798 303.212 199.868 303.282 199.888 303.302C194.808 308.642 191.978 311.612 191.418 312.202C191.278 312.072 191.208 312.002 191.188 311.992C196.268 306.642 199.098 303.682 199.658 303.082Z" fill="#CBCBCB"/>
<path d="M212.188 303.192C212.188 304.872 212.188 305.802 212.188 305.992C198.218 305.992 190.448 305.992 188.898 305.992C188.898 304.312 188.898 303.382 188.898 303.192C202.878 303.192 210.638 303.192 212.188 303.192Z" fill="white"/>
<path d="M212.348 306.142H188.738V303.032H212.348V306.142ZM189.058 305.832H212.038V303.352H189.058V305.832Z" fill="#CBCBCB"/>
<path d="M489.318 282.802C490.358 268.582 502.178 257.572 516.438 257.532C517.258 257.532 518.118 257.572 518.998 257.662C519.308 257.682 519.598 257.532 519.748 257.272C528.618 241.732 548.408 236.342 563.948 245.212C571.258 249.392 576.648 256.242 578.988 264.322C579.088 264.662 579.398 264.882 579.748 264.872C579.768 264.872 579.938 264.872 579.958 264.872C580.058 264.862 580.168 264.862 580.278 264.862C591.018 264.892 600.288 272.402 602.548 282.902C602.618 283.262 602.938 283.512 603.298 283.512C608.468 283.512 649.818 283.512 654.988 283.512C655.408 283.522 655.758 283.172 655.758 282.752C655.758 282.322 655.418 281.972 654.988 281.972C649.878 281.972 609.028 281.972 603.918 281.972C601.268 271.062 591.528 263.372 580.308 263.322C574.768 245.412 555.758 235.382 537.848 240.922C529.788 243.412 522.948 248.812 518.658 256.082C517.898 256.022 517.148 255.992 516.438 255.992C501.368 256.032 488.878 267.672 487.778 282.692C487.748 283.112 488.068 283.482 488.488 283.512C488.508 283.512 488.528 283.512 488.548 283.512C488.948 283.512 489.288 283.202 489.318 282.802Z" fill="#CBCBCB"/>
<path d="M624.248 293.412C624.678 293.412 625.028 293.062 625.028 292.642C625.028 292.212 624.678 291.862 624.248 291.862C611.598 291.862 510.378 291.862 497.728 291.862C497.298 291.862 496.958 292.212 496.958 292.642C496.958 293.062 497.298 293.412 497.728 293.412C497.728 293.412 611.598 293.412 624.248 293.412Z" fill="#CBCBCB"/>
<path d="M635.828 304.592C636.248 304.592 636.598 304.252 636.598 303.822C636.598 303.402 636.248 303.052 635.828 303.052C631.578 303.052 597.638 303.052 593.388 303.052C592.968 303.052 592.618 303.402 592.618 303.822C592.618 304.252 592.968 304.592 593.388 304.592C601.878 304.592 631.578 304.592 635.828 304.592Z" fill="#CBCBCB"/>
<path d="M393.678 490.752L392.468 480.952H396.218V490.752H393.678Z" fill="#9F616A"/>
<path d="M396.868 493.212H388.678C388.678 493.152 388.678 493.112 388.678 493.112C388.678 491.352 390.108 489.922 391.868 489.922C392.198 489.922 393.868 489.922 396.868 489.922V493.212Z" fill="#2F2E41"/>
<path d="M426.788 487.252L420.708 479.472L423.918 477.542L428.968 485.942L426.788 487.252Z" fill="#9F616A"/>
<path d="M423.768 491.932C423.738 491.882 423.718 491.852 423.718 491.842C422.808 490.332 423.298 488.382 424.808 487.472C425.088 487.302 426.518 486.442 429.098 484.892L430.788 487.712L423.768 491.932Z" fill="#2F2E41"/>
<path d="M396.838 488.732C395.598 488.722 394.368 488.652 393.138 488.522C392.668 488.472 392.158 488.422 391.548 488.372C391.548 488.372 391.528 488.372 391.528 488.362C391.108 488.242 391.098 484.332 391.278 470.932C391.368 464.072 391.468 456.292 391.348 451.342C391.348 451.342 391.348 451.322 391.348 451.292C391.368 451.272 391.378 451.262 391.378 451.262C395.868 447.332 401.948 445.792 407.768 447.102C407.768 447.102 407.778 447.112 407.808 447.112C407.828 447.142 407.828 447.152 407.828 447.152C410.328 451.372 414.098 457.462 417.738 463.342C426.108 476.842 428.498 480.822 428.238 481.122L428.208 481.142C427.638 481.432 427.208 481.652 426.838 481.832C425.398 482.582 423.918 483.252 422.398 483.842C422.398 483.842 422.368 483.852 422.328 483.862C422.298 483.832 422.288 483.812 422.288 483.812C413.798 474.512 406.728 464.122 402.358 454.512C401.848 457.792 401.228 462.072 400.578 466.602C398.688 479.612 397.418 488.182 396.908 488.702C396.898 488.702 396.838 488.732 396.838 488.732Z" fill="#2F2E41"/>
<path d="M411.448 358.341C411.448 358.341 262.198 290.921 259.168 150.001C257.388 67.1815 326.328 0.00149536 409.168 0.00149536C492.018 0.00149536 559.178 67.1615 559.178 150.001C559.178 290.921 440.988 316.681 411.448 358.341Z" fill="url(#paint0_linear_112_83)"/>
<path d="M407.278 437.192C407.718 436.482 409.918 432.932 413.868 426.552L416.908 426.572L417.638 422.052L410.768 421.352C407.008 429.982 404.918 434.782 404.498 435.732C403.048 435.972 402.038 437.312 402.248 438.732C402.448 440.162 403.788 441.122 405.238 440.892C406.688 440.662 407.698 439.312 407.488 437.892C407.478 437.782 407.458 437.682 407.428 437.572C407.388 437.442 407.338 437.312 407.278 437.192Z" fill="#FFB7B7"/>
<path d="M411.498 489.642L410.018 477.632H414.618V489.642H411.498Z" fill="#FFB7B7"/>
<path d="M415.278 488.752V492.532H405.498C405.498 490.452 407.188 488.752 409.278 488.752C409.278 488.752 411.278 488.752 415.278 488.752Z" fill="#2F2E41"/>
<path d="M423.188 489.642L421.698 477.632H426.298V489.642H423.188Z" fill="#FFB7B7"/>
<path d="M426.968 488.752V492.532H417.178C417.178 490.452 418.868 488.752 420.958 488.752C421.758 488.752 423.758 488.752 426.968 488.752Z" fill="#2F2E41"/>
<path d="M425.098 450.102C425.188 449.962 425.288 449.842 425.388 449.722C425.258 447.782 424.568 438.082 423.338 420.622L429.248 421.192C429.348 438.292 429.398 447.792 429.408 449.692C430.448 450.792 430.398 452.532 429.298 453.572C428.378 454.442 426.978 454.562 425.918 453.872C424.648 453.052 424.278 451.372 425.098 450.102Z" fill="#FFB7B7"/>
<path d="M411.038 483.432C410.428 483.402 409.958 482.902 409.948 482.292C409.928 478.832 409.738 451.082 409.708 447.612C409.708 446.982 410.218 446.462 410.848 446.462C410.898 446.462 410.958 446.462 411.018 446.472C412.388 446.672 423.358 448.262 424.728 448.462C425.288 448.542 425.708 449.022 425.708 449.582C425.888 452.802 427.298 478.512 427.478 481.722C427.478 482.352 426.968 482.872 426.338 482.872C426.338 482.872 426.338 482.872 426.328 482.872C425.958 482.872 423.008 482.872 422.638 482.872C422.068 482.882 421.588 482.472 421.508 481.912C421.508 481.912 418.718 457.802 418.328 457.822C417.948 457.822 415.658 482.592 415.658 482.592C415.588 483.162 415.098 483.592 414.518 483.592C414.498 483.592 414.488 483.592 414.468 483.592C412.408 483.492 411.268 483.442 411.038 483.432Z" fill="#2F2E41"/>
<path d="M424.208 429.532C424.168 428.752 423.818 422.482 423.778 421.692C423.678 419.962 425.008 418.472 426.748 418.372C428.228 418.292 429.568 419.262 429.958 420.692C430.148 421.402 431.668 427.012 431.858 427.712C432.028 428.322 431.668 428.942 431.058 429.112C430.518 429.262 426.188 430.432 425.648 430.582C425.318 430.672 424.958 430.602 424.678 430.402C424.398 430.202 424.228 429.882 424.208 429.532Z" fill="#8C7AE6"/>
<path d="M424.208 429.532C424.168 428.752 423.818 422.482 423.778 421.692C423.678 419.962 425.008 418.472 426.748 418.372C428.228 418.292 429.568 419.262 429.958 420.692C430.148 421.402 431.668 427.012 431.858 427.712C432.028 428.322 431.668 428.942 431.058 429.112C430.518 429.262 426.188 430.432 425.648 430.582C425.318 430.672 424.958 430.602 424.678 430.402C424.398 430.202 424.228 429.882 424.208 429.532Z" fill="#8C7AE6"/>
<path d="M419.628 399.282C416.178 399.282 413.388 402.082 413.388 405.522C413.388 408.972 416.178 411.762 419.628 411.762C423.078 411.762 425.868 408.972 425.868 405.522C425.868 402.082 423.078 399.282 419.628 399.282Z" fill="#FFB7B7"/>
<path d="M421.198 410.562C420.848 410.242 420.628 409.812 420.568 409.342C420.558 409.212 420.558 409.072 420.568 408.942C420.648 408.192 421.078 407.512 420.978 406.722C420.948 406.522 420.878 406.332 420.758 406.172C419.838 404.932 417.658 406.732 416.788 405.602C416.248 404.922 416.878 403.832 416.468 403.062C415.918 402.042 414.308 402.542 413.298 401.992C412.178 401.372 412.248 399.642 412.988 398.602C413.958 397.342 415.438 396.592 417.028 396.542C418.598 396.502 420.158 396.802 421.598 397.432C423.298 397.982 424.808 399.022 425.918 400.422C427.088 402.282 427.358 404.572 426.658 406.652C426.278 407.912 424.988 409.442 424.038 410.462C423.288 411.272 422.008 411.322 421.198 410.562Z" fill="#2F2E41"/>
<path d="M425.528 415.702C424.928 415.302 424.278 414.982 423.598 414.752C423.598 414.642 423.598 414.102 423.598 413.112H418.768C418.768 414.032 418.768 414.532 418.768 414.632C415.498 415.542 413.078 418.302 412.628 421.672C412.298 424.112 409.678 443.622 409.348 446.062C409.298 446.372 409.388 446.682 409.578 446.932C409.768 447.172 410.048 447.322 410.358 447.352C412.658 447.652 414.878 448.412 416.878 449.592C418.328 450.392 419.968 450.812 421.628 450.802C422.948 450.792 424.258 450.562 425.498 450.112C425.928 449.952 426.218 449.552 426.238 449.092C426.358 446.472 427.048 432.952 429.068 424.712C429.868 421.402 428.598 417.942 425.858 415.932C425.688 415.812 425.558 415.722 425.528 415.702Z" fill="#836FE6"/>
<path d="M361.438 366.682L349.318 318.192H473.568L461.448 366.682H361.438Z" fill="#17171D"/>
<path d="M361.438 366.682L349.318 318.192H473.568L461.448 366.682H361.438Z" fill="#17171D"/>
<path d="M458.038 449.602C458.038 478.742 458.038 494.922 458.038 498.162C402.128 498.162 371.068 498.162 364.848 498.162C364.848 469.022 364.848 452.842 364.848 449.602C420.758 449.602 451.828 449.602 458.038 449.602Z" fill="white"/>
<path d="M458.798 498.922H364.098V448.842H458.798V498.922ZM365.608 497.402H457.278V450.362H365.608V497.402Z" fill="#17171D"/>
<path d="M392.338 372.402L387.958 365.512H434.928L430.548 372.402H392.338Z" fill="#17171D"/>
<path d="M363.718 366.682C363.718 411.232 363.718 435.972 363.718 440.922C362.808 440.922 362.298 440.922 362.198 440.922C362.198 396.382 362.198 371.632 362.198 366.682C363.108 366.682 363.618 366.682 363.718 366.682Z" fill="#17171D"/>
<path d="M363.718 366.682C363.718 411.232 363.718 435.972 363.718 440.922C362.808 440.922 362.298 440.922 362.198 440.922C362.198 396.382 362.198 371.632 362.198 366.682C363.108 366.682 363.618 366.682 363.718 366.682Z" fill="#17171D"/>
<path d="M460.688 366.682C460.688 411.232 460.688 435.972 460.688 440.922C459.778 440.922 459.278 440.922 459.178 440.922C459.178 396.382 459.178 371.632 459.178 366.682C460.078 366.682 460.588 366.682 460.688 366.682Z" fill="#17171D"/>
<path d="M460.688 366.682C460.688 411.232 460.688 435.972 460.688 440.922C459.778 440.922 459.278 440.922 459.178 440.922C459.178 396.382 459.178 371.632 459.178 366.682C460.078 366.682 460.588 366.682 460.688 366.682Z" fill="#17171D"/>
<path d="M425.708 316.171C469.478 282.411 521.658 224.591 521.658 140.781C521.728 80.7715 485.808 26.5715 430.508 3.26149C430.568 3.12149 431.038 2.01149 431.098 1.87149C486.958 25.4115 523.248 80.1615 523.178 140.781C523.178 225.201 470.678 283.411 426.628 317.371C426.448 317.131 425.798 316.291 425.708 316.171Z" fill="#17171D"/>
<path d="M377.218 316.171C420.998 282.421 473.168 224.591 473.168 140.781C473.198 81.2015 437.768 27.3115 383.058 3.7115C383.118 3.5715 383.598 2.4615 383.658 2.3215C438.928 26.1615 474.708 80.5915 474.688 140.781C474.688 225.201 422.188 283.411 378.148 317.371C377.958 317.131 377.308 316.291 377.218 316.171Z" fill="#17171D"/>
<path d="M440.198 317.371C396.158 283.411 343.658 225.201 343.658 140.781C343.628 80.5915 379.418 26.1615 434.688 2.3215C434.748 2.4615 435.228 3.5715 435.288 3.7115C380.578 27.3115 345.148 81.2015 345.168 140.781C345.168 224.591 397.348 282.411 441.118 316.171C440.938 316.411 440.378 317.131 440.198 317.371Z" fill="#17171D"/>
<path d="M391.708 317.371C347.668 283.411 295.168 225.201 295.168 140.781C295.068 79.9115 331.658 24.9815 387.858 1.61148C387.918 1.75148 388.388 2.87148 388.448 3.01148C332.808 26.1415 296.588 80.5215 296.688 140.781C296.688 224.591 348.868 282.421 392.638 316.171C392.448 316.411 391.898 317.131 391.708 317.371Z" fill="#17171D"/>
<path d="M409.928 0.00149536C409.928 190.911 409.928 296.981 409.928 318.191C409.018 318.191 408.518 318.191 408.418 318.191C408.418 127.281 408.418 21.2115 408.418 0.00149536C409.318 0.00149536 409.828 0.00149536 409.928 0.00149536Z" fill="#17171D"/>
<path d="M364.848 466.912L392.638 439.122Z" fill="white"/>
<path d="M392.098 438.592C392.748 439.232 393.098 439.592 393.168 439.662C376.498 456.332 367.238 465.592 365.388 467.442C364.748 466.802 364.388 466.442 364.318 466.372C380.988 449.702 390.248 440.442 392.098 438.592Z" fill="#17171D"/>
<path d="M364.848 482.082L406.158 438.652Z" fill="white"/>
<path d="M405.608 438.132C406.268 438.752 406.628 439.102 406.708 439.172C381.928 465.232 368.158 479.712 365.408 482.612C364.748 481.982 364.378 481.632 364.308 481.562C389.088 455.502 402.858 441.022 405.608 438.132Z" fill="#17171D"/>
<path d="M466.748 438.652C466.748 446.832 466.748 451.382 466.748 452.292C398.568 452.292 360.688 452.292 353.108 452.292C353.108 444.112 353.108 439.562 353.108 438.652C421.298 438.652 459.178 438.652 466.748 438.652Z" fill="white"/>
<path d="M467.508 453.052H352.348V437.892H467.508V453.052ZM353.868 451.532H465.988V439.412H353.868V451.532Z" fill="#17171D"/>
<path d="M408.708 423.032C409.268 422.472 413.708 418.032 414.268 417.472C415.498 416.242 417.488 416.242 418.718 417.472C419.768 418.522 419.938 420.172 419.138 421.412C418.738 422.022 415.578 426.902 415.178 427.512C414.838 428.042 414.128 428.192 413.598 427.842C413.128 427.542 409.368 425.102 408.898 424.792C408.608 424.612 408.418 424.302 408.378 423.952C408.348 423.612 408.468 423.272 408.708 423.032Z" fill="#8C7AE6"/>
<path d="M332.058 369.162C331.008 354.952 319.198 343.942 304.938 343.902C304.118 343.902 303.248 343.942 302.368 344.022C302.068 344.052 301.778 343.902 301.628 343.642C292.748 328.102 272.958 322.702 257.428 331.582C250.118 335.752 244.728 342.602 242.378 350.682C242.288 351.022 241.968 351.252 241.618 351.242C241.598 351.242 241.438 351.242 241.418 351.242C241.308 351.232 241.208 351.232 241.098 351.232C230.358 351.262 221.088 358.772 218.828 369.272C218.758 369.632 218.438 369.882 218.078 369.882C212.908 369.882 171.558 369.882 166.388 369.882C165.958 369.882 165.618 369.542 165.618 369.112C165.608 368.692 165.958 368.342 166.378 368.342C166.388 368.342 166.388 368.342 166.388 368.342C171.498 368.342 212.348 368.342 217.458 368.342C220.098 357.432 229.848 349.732 241.068 349.682C246.608 331.782 265.608 321.752 283.518 327.282C291.588 329.772 298.428 335.182 302.718 342.442C303.478 342.392 304.218 342.362 304.938 342.362C319.998 342.402 332.488 354.032 333.598 369.062C333.628 369.482 333.308 369.852 332.878 369.882C332.868 369.882 332.848 369.882 332.828 369.882C332.418 369.882 332.088 369.572 332.058 369.162Z" fill="#CBCBCB"/>
<path d="M197.118 379.772C196.698 379.772 196.348 379.432 196.348 379.002C196.348 378.582 196.688 378.232 197.118 378.232C209.768 378.232 310.998 378.232 323.648 378.232C324.078 378.232 324.418 378.582 324.418 379.002C324.418 379.432 324.078 379.772 323.648 379.772C298.338 379.772 209.768 379.772 197.118 379.772Z" fill="#CBCBCB"/>
<path d="M185.548 390.962C185.118 390.962 184.778 390.622 184.778 390.192C184.768 389.772 185.118 389.422 185.538 389.422C185.548 389.422 185.548 389.422 185.548 389.422C189.788 389.422 223.738 389.422 227.978 389.422C228.408 389.422 228.758 389.762 228.758 390.192C228.758 390.612 228.408 390.962 227.988 390.962H227.978C219.498 390.962 189.788 390.962 185.548 390.962Z" fill="#CBCBCB"/>
<defs>
<linearGradient id="paint0_linear_112_83" x1="481" y1="26" x2="325" y2="439" gradientUnits="userSpaceOnUse">
<stop stop-color="#1CA7EC"/>
<stop offset="1" stop-color="#7BD5F5"/>
</linearGradient>
</defs>
</svg>
