<svg width="23" height="41" viewBox="0 0 23 41" fill="none" xmlns="http://www.w3.org/2000/svg">
<g clip-path="url(#clip0_3_138)">
<path d="M10.2953 41H9.75534C8.81934 41 7.91934 40.91 7.05534 40.73C6.19134 40.55 5.41734 40.226 4.73334 39.758C4.08534 39.29 3.54534 38.642 3.11334 37.814C2.71734 36.986 2.51934 35.906 2.51934 34.574V1.796H3.38334C4.24734 1.796 5.09334 1.904 5.92134 2.12C6.74934 2.3 7.48734 2.642 8.13534 3.146C8.78334 3.614 9.30534 4.262 9.70134 5.09C10.0973 5.918 10.2953 6.98 10.2953 8.276V41ZM22.1213 35.816C22.1213 36.428 21.9953 37.04 21.7433 37.652C21.5273 38.264 21.1853 38.822 20.7173 39.326C20.2853 39.794 19.7093 40.19 18.9893 40.514C18.3053 40.838 17.5133 41 16.6133 41H16.3973C15.4253 41 14.6153 40.838 13.9673 40.514C13.3193 40.154 12.7793 39.74 12.3473 39.272C11.9513 38.768 11.6633 38.246 11.4833 37.706C11.3393 37.13 11.2673 36.626 11.2673 36.194C11.2673 35.906 11.2673 35.654 11.2673 35.438C11.3033 35.186 11.3753 34.916 11.4833 34.628C11.9513 35.06 12.5273 35.276 13.2113 35.276C13.7513 35.276 14.2013 35.114 14.5613 34.79C14.9213 34.43 15.1013 33.908 15.1013 33.224V30.578C15.1733 30.542 15.4073 30.524 15.8033 30.524C16.2353 30.488 16.5773 30.47 16.8293 30.47C17.2253 30.47 17.7293 30.542 18.3413 30.686C18.9533 30.794 19.5293 31.046 20.0693 31.442C20.6453 31.838 21.1313 32.396 21.5273 33.116C21.9233 33.8 22.1213 34.7 22.1213 35.816Z" fill="white"/>
</g>
<defs>
<clipPath id="clip0_3_138">
<rect width="23" height="41" fill="white"/>
</clipPath>
</defs>
</svg>
